<svg xmlns="http://www.w3.org/2000/svg" xmlns:xlink="http://www.w3.org/1999/xlink" version="1.1" width="24.499998092651367" height="24.499998092651367" viewBox="0 0 24.499998092651367 24.499998092651367"><path d="M0.29289299999999996,22.7929L22.7929,0.29289299999999996L24.2071,1.7071070000000002L1.7071070000000002,24.2071L0.29289299999999996,22.7929ZM4.125,0Q5.83363,0,7.04181,1.208184Q8.25,2.4163699999999997,8.25,4.125Q8.25,5.83363,7.04181,7.04181Q5.83363,8.25,4.125,8.25Q2.4163699999999997,8.25,1.208184,7.04181Q0,5.83363,0,4.125Q0,2.4163699999999997,1.208184,1.208184Q2.4163699999999997,0,4.125,0ZM4.125,2Q3.2448,2,2.6224,2.6224Q2,3.2448,2,4.125Q2,5.0052,2.6224,5.6276Q3.2448,6.25,4.125,6.25Q5.0052,6.25,5.6276,5.6276Q6.25,5.0052,6.25,4.125Q6.25,3.2448,5.6276,2.6224Q5.0052,2,4.125,2ZM20.375,16.25Q22.0836,16.25,23.2918,17.4582Q24.5,18.6664,24.5,20.375Q24.5,22.0836,23.2918,23.2918Q22.0836,24.5,20.375,24.5Q18.6664,24.5,17.4582,23.2918Q16.25,22.0836,16.25,20.375Q16.25,18.6664,17.4582,17.4582Q18.6664,16.25,20.375,16.25ZM20.375,18.25Q19.4948,18.25,18.8724,18.8724Q18.25,19.4948,18.25,20.375Q18.25,21.2552,18.8724,21.8776Q19.4948,22.5,20.375,22.5Q21.2552,22.5,21.8776,21.8776Q22.5,21.2552,22.5,20.375Q22.5,19.4948,21.8776,18.8724Q21.2552,18.25,20.375,18.25ZM2,23.5Q2,23.5985,1.980785,23.6951Q1.96157,23.7917,1.923879,23.8827Q1.886188,23.9737,1.83147,24.0556Q1.776751,24.1375,1.7071070000000002,24.2071Q1.637463,24.2767,1.55557,24.3315Q1.473678,24.3862,1.382683,24.4239Q1.2916889999999999,24.4616,1.19509,24.4808Q1.0984914,24.5,1,24.5Q0.9015086,24.5,0.80491,24.4808Q0.708311,24.4616,0.617317,24.4239Q0.526322,24.3862,0.44443,24.3315Q0.362537,24.2767,0.29289299999999996,24.2071Q0.22324900000000003,24.1375,0.16852999999999996,24.0556Q0.11381200000000002,23.9737,0.076121,23.8827Q0.038429999999999964,23.7917,0.019214999999999982,23.6951Q0,23.5985,0,23.5Q0,23.4015,0.019214999999999982,23.3049Q0.038429999999999964,23.2083,0.076121,23.1173Q0.11381200000000002,23.0263,0.16852999999999996,22.9444Q0.22324900000000003,22.8625,0.29289299999999996,22.7929Q0.362537,22.7232,0.44443,22.6685Q0.526322,22.6138,0.617317,22.5761Q0.708311,22.5384,0.80491,22.5192Q0.9015086,22.5,1,22.5Q1.0984914,22.5,1.19509,22.5192Q1.2916889999999999,22.5384,1.382683,22.5761Q1.473678,22.6138,1.55557,22.6685Q1.637463,22.7232,1.7071070000000002,22.7929Q1.776751,22.8625,1.83147,22.9444Q1.886188,23.0263,1.923879,23.1173Q1.96157,23.2083,1.980785,23.3049Q2,23.4015,2,23.5ZM24.5,1Q24.5,1.0984914,24.4808,1.19509Q24.4616,1.2916889999999999,24.4239,1.382683Q24.3862,1.473678,24.3315,1.55557Q24.2767,1.637463,24.2071,1.7071070000000002Q24.1375,1.776751,24.0556,1.83147Q23.9737,1.886188,23.8827,1.923879Q23.7917,1.96157,23.6951,1.980785Q23.5985,2,23.5,2Q23.4015,2,23.3049,1.980785Q23.2083,1.96157,23.1173,1.923879Q23.0263,1.886188,22.9444,1.83147Q22.8625,1.776751,22.7929,1.7071070000000002Q22.7232,1.637463,22.6685,1.55557Q22.6138,1.473678,22.5761,1.382683Q22.5384,1.2916889999999999,22.5192,1.19509Q22.5,1.0984914,22.5,1Q22.5,0.9015086,22.5192,0.80491Q22.5384,0.708311,22.5761,0.617317Q22.6138,0.526322,22.6685,0.44443Q22.7232,0.362537,22.7929,0.29289299999999996Q22.8625,0.22324900000000003,22.9444,0.16852999999999996Q23.0263,0.11381200000000002,23.1173,0.076121Q23.2083,0.038429999999999964,23.3049,0.019214999999999982Q23.4015,0,23.5,0Q23.5985,0,23.6951,0.019214999999999982Q23.7917,0.038429999999999964,23.8827,0.076121Q23.9737,0.11381200000000002,24.0556,0.16852999999999996Q24.1375,0.22324900000000003,24.2071,0.29289299999999996Q24.2767,0.362537,24.3315,0.44443Q24.3862,0.526322,24.4239,0.617317Q24.4616,0.708311,24.4808,0.80491Q24.5,0.9015086,24.5,1Z" fill-opacity="1"/></svg>