<?xml version="1.0" standalone="no"?><!DOCTYPE svg PUBLIC "-//W3C//DTD SVG 1.1//EN" "http://www.w3.org/Graphics/SVG/1.1/DTD/svg11.dtd"><svg t="1587630989095" class="icon" viewBox="0 0 1024 1024" version="1.1" xmlns="http://www.w3.org/2000/svg" p-id="1133" xmlns:xlink="http://www.w3.org/1999/xlink" width="128" height="128"><defs><style type="text/css"></style></defs><path d="M145.19786245 686.01079884l-108.89283113-269.59370528c-9.5692269-24.89614578-9.24983842-52.14110181 0.95816545-77.18016463 9.69598809-23.90069763 27.17536165-42.96334329 49.37472531-53.63365266L664.34333506 7.54391207c46.82458848-22.6206582 100.5999154-0.92461102 119.67623138 48.441415l110.04362389 284.3191299-58.5624259 28.16832429-110.04362389-284.31912991c-5.10400193-13.08871399-21.4338255-18.13803463-35.85104645-11.31157185L111.89943835 350.90392921c-7.52737758 3.62636417-13.39567491 9.88737263-16.52245087 17.64093194-1.5310763 3.84136109-3.69968682 11.38116623-0.63753421 19.20556267l108.638066 269.16743972L145.19786245 686.01079884zM898.58931037 1040.32695941L238.08025851 1040.32695941c-52.75502365 0-95.68854077-47.87347517-95.68854077-106.69687998L142.39171774 436.90393842c0-58.82589033 42.93227437-106.69936549 95.68854077-106.69936548l660.50905186 0c52.7562664 0 95.68854077 47.87223242 95.68854077 106.69936548l0 496.72614101C994.27785114 992.45348423 951.34557677 1040.32695941 898.58931037 1040.32695941zM238.08025851 401.33748326c-17.60613475 0-31.89535175 15.93214142-31.89535176 35.56521241L206.18490675 933.63007943c0 19.55850559 14.29045977 35.56272689 31.89535176 35.5627269l660.50905186 0c17.54275415 0 31.89659451-16.0042213 31.8965945-35.5627269L930.48590487 436.90393842c0-19.63431375-14.35384035-35.56521241-31.8965945-35.56521239L238.08025851 401.33748326 238.08025851 401.33748326zM391.18291794 732.81923148c-8.74030816 0-17.15998508-5.3376402-21.37044492-14.65458749-5.99505852-13.15582286-1.27631118-29.16501519 10.58953019-35.85228921l273.79795134-154.21616947c11.67321407-6.61519413 26.15505837-1.42419922 32.15260239 11.80743179 5.92919242 13.15830837 1.21293058 29.16625795-10.58953019 35.77896657L401.90169483 729.97083303C398.45553038 731.89337771 394.81922416 732.81923148 391.18291794 732.81923148zM491.7840761 873.58877301c-8.35629633 0-16.46031303-4.83680924-20.86091465-13.51497955-6.50583154-12.8041227-2.48551348-29.02334092 8.99631604-36.3469064l279.92101381-176.91015031c11.22830715-7.25645661 26.02705442-2.84218467 32.59626655 10.10112679 6.57294041 12.8041227 2.487999 29.02334092-9.05845388 36.34939191L503.52067075 870.17616301C499.82098395 872.52248773 495.80315139 873.58877301 491.7840761 873.58877301z" p-id="1134"></path></svg>