<?xml version="1.0" standalone="no"?><!DOCTYPE svg PUBLIC "-//W3C//DTD SVG 1.1//EN" "http://www.w3.org/Graphics/SVG/1.1/DTD/svg11.dtd"><svg t="1654574125609" class="icon" viewBox="0 0 1024 1024" version="1.1" xmlns="http://www.w3.org/2000/svg" p-id="1712" width="32" height="32" xmlns:xlink="http://www.w3.org/1999/xlink"><defs><style type="text/css">@font-face { font-family: feedback-iconfont; src: url("//at.alicdn.com/t/font_1031158_u69w8yhxdu.woff2?t=1630033759944") format("woff2"), url("//at.alicdn.com/t/font_1031158_u69w8yhxdu.woff?t=1630033759944") format("woff"), url("//at.alicdn.com/t/font_1031158_u69w8yhxdu.ttf?t=1630033759944") format("truetype"); }
</style></defs><path d="M699.693 412.792c-147.757 0-272.263 120.531-272.263 272.264a270.577 270.577 0 0 0 272.263 272.203 270.577 270.577 0 0 0 272.264-272.263c3.855-151.673-120.591-272.204-272.264-272.204z m0 497.785a225.702 225.702 0 0 1-225.52-225.581 225.702 225.702 0 0 1 225.52-225.521 225.702 225.702 0 0 1 225.581 225.52 225.702 225.702 0 0 1-225.58 225.582z m-501.64-661.143h388.88v62.223h-388.88v-62.223z m0 159.443H509.17V471.1H198.054v-62.223z m0 182.814h155.528v62.223H198.054v-62.223z m190.465 287.744H116.254V121.073H742.4v217.75c15.6 0 50.598 3.916 66.138 3.916V89.992c0-15.541-15.54-31.082-31.141-31.082H81.377c-15.6 0-31.14 15.54-31.14 31.082v824.5c0 15.54 15.54 31.082 31.14 31.082H427.49c-15.54-19.456-27.226-50.598-38.912-66.078zM855.22 634.398c-3.916-11.686-11.686-15.54-23.372-19.456l-73.848-11.625-34.997-66.139c-7.83-19.456-38.912-19.456-50.597 0l-34.937 66.139-73.969 11.625c-11.625 0-19.396 7.83-23.31 19.456-3.856 11.686 0 19.456 7.83 27.226l54.392 50.598-7.77 77.704c0 11.685 3.915 19.516 11.685 27.286s19.456 7.77 31.082 3.855l66.138-34.936 66.078 34.936c3.916 3.916 7.83 3.916 11.686 3.916 7.83 0 11.686-3.916 15.54-3.916a35.298 35.298 0 0 0 11.686-27.226l-11.685-73.849 54.452-50.597c3.916-11.626 3.916-23.311 3.916-34.937zM742.4 688.851c-7.77 7.83-7.77 15.54-7.77 23.31l3.915 34.998-27.226-19.396c-3.916-3.915-7.831-3.915-11.686-3.915s-7.77 0-11.625 3.915l-31.142 15.54 3.915-31.141c0-7.77 0-19.396-7.83-23.311L629.64 665.54l34.996-3.916c7.83 0 15.54-7.83 19.456-15.54l15.54-31.142 15.602 31.142c3.855 7.77 11.625 11.625 19.396 15.54l34.996 3.916-27.226 23.31z" p-id="1713"></path></svg>