<?xml version="1.0" standalone="no"?><!DOCTYPE svg PUBLIC "-//W3C//DTD SVG 1.1//EN" "http://www.w3.org/Graphics/SVG/1.1/DTD/svg11.dtd"><svg t="1587628978482" class="icon" viewBox="0 0 1024 1024" version="1.1" xmlns="http://www.w3.org/2000/svg" p-id="828" xmlns:xlink="http://www.w3.org/1999/xlink" width="128" height="128"><defs><style type="text/css"></style></defs><path d="M487.08349501 486.71527007H251.29725218c-129.98314961 0-235.78624154-105.80309191-235.78624155-235.78624153s105.80309191-235.78624154 235.78624155-235.78624154 235.78624154 105.80309191 235.78624283 235.78624154v235.78624153zM251.29725218 70.25367741c-99.54328091 0-180.55260948 81.00932858-180.55260819 180.55260948s81.00932858 180.55260948 180.55260819 180.55260947h180.55260947V250.80628689c0-99.54328091-81.00932858-180.55260948-180.55260947-180.55260948zM773.80742005 486.71527007H538.02117852V250.80628689c0-129.98314961 105.80309191-235.78624154 235.78624153-235.78624155s235.78624154 105.80309191 235.78624154 235.78624155-105.68035156 235.90898318-235.78624154 235.90898318z m-180.55260948-55.23363336h180.55260948c99.54328091 0 180.55260948-81.00932858 180.55260948-180.55260817s-81.00932858-180.55260948-180.55260948-180.55260949-180.55260948 81.00932858-180.55260948 180.55260949v180.55260817zM251.29725218 1009.22543794c-129.98314961 0-235.78624154-105.80309191-235.78624155-235.78624155s105.80309191-235.78624154 235.78624155-235.78624281h235.78624283V773.43919639c0 129.98314961-105.80309191 235.78624154-235.78624283 235.78624155z m0-416.33885102c-99.54328091 0-180.55260948 81.00932858-180.55260819 180.55260947s81.00932858 180.55260948 180.55260819 180.5526082 180.55260948-81.00932858 180.55260947-180.5526082V592.88658692H251.29725218zM773.80742005 1009.22543794c-129.98314961 0-235.78624154-105.80309191-235.78624153-235.78624155V537.65295358h235.78624153c129.98314961 0 235.78624154 105.80309191 235.78624154 235.78624281s-105.68035156 235.78624154-235.78624154 235.78624155zM593.25481057 592.88658692V773.43919639c0 99.54328091 81.00932858 180.55260948 180.55260948 180.5526082s180.55260948-81.00932858 180.55260948-180.5526082-81.00932858-180.55260948-180.55260948-180.55260947H593.25481057z" p-id="829"></path></svg>