<?xml version="1.0" standalone="no"?><!DOCTYPE svg PUBLIC "-//W3C//DTD SVG 1.1//EN" "http://www.w3.org/Graphics/SVG/1.1/DTD/svg11.dtd"><svg t="1589183478100" class="icon" viewBox="0 0 1024 1024" version="1.1" xmlns="http://www.w3.org/2000/svg" p-id="936" xmlns:xlink="http://www.w3.org/1999/xlink" width="128" height="128"><defs><style type="text/css"></style></defs><path d="M512 548.40888853c-3.64088853 0-10.92266667 0-14.5635552-3.64088853l-473.31555627-218.45333333C9.55733333 319.03288853 2.2755552 308.11022187 2.2755552 293.54666667s7.28177813-25.48622187 21.84533333-32.768l473.31555627-218.45333334c10.92266667-3.64088853 21.84533333-3.64088853 29.1271104 0l473.31555627 218.45333334c14.5635552 7.28177813 21.84533333 18.2044448 21.84533333 32.768s-7.28177813 25.48622187-21.84533333 32.768l-473.31555627 218.45333333c-3.64088853 3.64088853-10.92266667 3.64088853-14.5635552 3.64088853zM126.06577813 293.54666667L512 471.95022187 897.93422187 293.54666667 512 115.14311147 126.06577813 293.54666667z" p-id="937"></path><path d="M512 766.86222187c-3.64088853 0-10.92266667 0-14.5635552-3.64088854l-473.31555627-218.45333333c-18.2044448-7.28177813-25.48622187-29.12711147-18.20444373-47.3315552 7.28177813-18.2044448 29.12711147-25.48622187 47.3315552-18.2044448L512 690.4035552l458.752-211.1715552c18.2044448-7.28177813 40.04977813 0 47.3315552 18.2044448 7.28177813 18.2044448 0 40.04977813-18.20444373 47.3315552l-473.31555627 218.45333333c-3.64088853 3.64088853-10.92266667 3.64088853-14.5635552 3.64088854z" p-id="938"></path><path d="M512 985.3155552c-3.64088853 0-10.92266667 0-14.5635552-3.64088853l-473.31555627-218.45333334c-18.2044448-7.28177813-25.48622187-29.12711147-18.20444373-47.3315552 7.28177813-18.2044448 29.12711147-25.48622187 47.3315552-18.2044448L512 908.85688853l458.752-211.1715552c18.2044448-7.28177813 40.04977813 0 47.3315552 18.2044448 7.28177813 18.2044448 0 40.04977813-18.20444373 47.3315552l-473.31555627 218.45333334c-3.64088853 3.64088853-10.92266667 3.64088853-14.5635552 3.64088853z" p-id="939"></path></svg>