<?xml version="1.0" standalone="no"?><!DOCTYPE svg PUBLIC "-//W3C//DTD SVG 1.1//EN" "http://www.w3.org/Graphics/SVG/1.1/DTD/svg11.dtd"><svg t="1588589069164" class="icon" viewBox="0 0 1024 1024" version="1.1" xmlns="http://www.w3.org/2000/svg" p-id="5114" xmlns:xlink="http://www.w3.org/1999/xlink" width="128" height="128"><defs><style type="text/css"></style></defs><path d="M874.039 149.961c-199.97-199.97-524.603-199.475-725.067 0.99-125.158 125.158-172.393 298.682-141.492 460.114 15.415 80.61 50.275 158.18 104.723 225.214l84.429 82.449c64.983 50.417 139.229 83.085 216.375 97.864 161.362 30.83 334.886-16.405 460.044-141.563 200.465-200.465 200.96-525.097 0.99-725.067z" fill="#cccccc" p-id="5115"></path><path d="M667.676 356.324c-119.473-119.473-313.314-119.171-433.089 0.604l-193.238 193.238c16.896 104.991 65.545 205.683 146.173 286.312s181.396 129.353 286.312 146.173l193.238-193.238c119.699-119.699 120.077-313.616 0.604-433.089zM622.27 527.84c14.934 14.934 14.859 39.145-0.075 54.080s-39.145 15.009-54.080 0.075c-14.934-14.934-14.859-39.145 0.075-54.080s39.145-15.009 54.080-0.075zM496.16 401.73c14.934 14.934 14.859 39.145-0.075 54.080s-39.145 15.009-54.080 0.075c-14.934-14.934-14.859-39.145 0.075-54.080s39.145-15.009 54.080-0.075zM326.303 697.093c-68.259-68.259-68.109-179.435 0.377-247.921 2.187-2.187 4.375-4.224 6.637-6.336l247.242 247.242c-2.036 2.338-4.149 4.45-6.336 6.637-68.41 68.41-179.662 68.636-247.921 0.377z" fill="#FFFFFF" p-id="5116"></path></svg>