<?xml version="1.0" standalone="no"?><!DOCTYPE svg PUBLIC "-//W3C//DTD SVG 1.1//EN" "http://www.w3.org/Graphics/SVG/1.1/DTD/svg11.dtd"><svg t="1609913084311" class="icon" viewBox="0 0 1024 1024" version="1.1" xmlns="http://www.w3.org/2000/svg" p-id="3580" width="128" height="128" xmlns:xlink="http://www.w3.org/1999/xlink"><defs><style type="text/css"></style></defs><path d="M924 112H100C45 112 0 167.4 0 235.1v553.8C0 856.6 45 912 100 912h824c55 0 100-55.4 100-123.1V235.1c0-67.7-45-123.1-100-123.1z m58 633.8c0 67.7-45 123.1-100 123.1H142c-55 0-100-55.4-100-123.1V278.2c0-67.7 45-123.1 100-123.1h740c55 0 100 55.4 100 123.1v467.6z" p-id="3581"></path><path d="M800.8 339.7m-49.6 0a49.6 49.6 0 1 0 99.2 0 49.6 49.6 0 1 0-99.2 0Z" p-id="3582"></path><path d="M893.5 697.9L754.4 558.7c-5-5-11.6-7.4-18.2-7.2-6.6-0.2-13.2 2.2-18.2 7.2L614 662.6 376.5 425.1c-10.8-10.8-26.9-13.2-40-7.3-4.6 1.7-8.9 4.4-12.6 8.1l-228 228c-13.9 13.9-13.9 36.6 0 50.5l2.2 2.2c13.9 13.9 36.6 13.9 50.5 0l202-202L572.9 727c1 1 2.1 1.9 3.1 2.8 0.8 1.1 1.7 2.2 2.7 3.2l1.8 1.8c9.7 9.7 25.4 9.7 35.1 0l6.9-6.9 0.9-0.9 2.2-2.2 0.9-0.9 109.6-109.6 120.5 120.5c9.7 9.7 25.4 9.7 35.1 0l1.8-1.8c9.7-9.7 9.7-25.5 0-35.1z" p-id="3583"></path></svg>