<?xml version="1.0" standalone="no"?><!DOCTYPE svg PUBLIC "-//W3C//DTD SVG 1.1//EN" "http://www.w3.org/Graphics/SVG/1.1/DTD/svg11.dtd"><svg t="1587522831018" class="icon" viewBox="0 0 1024 1024" version="1.1" xmlns="http://www.w3.org/2000/svg" p-id="1265" width="128" height="128" xmlns:xlink="http://www.w3.org/1999/xlink"><defs><style type="text/css"></style></defs><path d="M485.478 500.838H220.98c-62.464 0-113.459-49.766-113.459-111.206V236.134c0-29.9 11.98-58.368 33.587-79.872 21.607-21.504 49.971-33.382 79.872-33.382h153.498c61.337 0 111.001 50.893 111.001 113.254v264.704zM220.98 179.814c-30.822 0-56.627 25.6-56.627 56.423v153.497c0 30.31 25.19 55.296 56.627 55.296h208.589V236.134c0-31.232-24.883-56.422-55.091-56.422H220.979v0.102z m583.987 321.024H538.522V236.134c0-29.9 11.776-58.368 33.28-79.872s49.766-33.382 79.667-33.382h153.497c61.543 0 111.514 50.893 111.514 113.254v153.498c0 29.9-11.571 57.856-32.563 78.848s-49.05 32.358-78.95 32.358z m-209.612-55.91h209.612c30.925 0 54.58-24.474 54.58-55.296V236.134c0-31.232-24.27-56.422-54.58-56.422H651.47c-30.72 0-56.115 25.6-56.115 56.422v208.794zM374.477 931.84H220.979c-62.464 0-113.459-50.074-113.459-111.718V666.624c0-30.003 11.98-58.163 33.587-79.667 21.504-21.402 49.971-33.075 79.872-33.075h264.5v266.24c0 29.9-11.367 57.958-32.257 78.95-20.89 21.197-48.844 32.768-78.745 32.768zM220.979 610.714c-30.822 0-56.627 25.292-56.627 55.91v153.498c0 30.515 25.19 54.784 56.627 54.784h153.498c30.72 0 55.091-23.86 55.091-54.784V610.714H220.979zM804.966 931.84H651.47c-62.362 0-112.947-50.074-112.947-111.718v-266.24h266.444c61.543 0 111.514 50.483 111.514 112.742v153.498c0 29.9-11.571 57.958-32.46 79.052-21.095 21.095-49.153 32.666-79.054 32.666zM595.354 610.714v209.408c0 30.515 24.883 54.784 56.115 54.784h153.497c30.925 0 54.58-23.86 54.58-54.784V666.624c0-31.13-24.27-55.91-54.58-55.91H595.354z" p-id="1266"></path></svg>