<?xml version="1.0" standalone="no"?><!DOCTYPE svg PUBLIC "-//W3C//DTD SVG 1.1//EN" "http://www.w3.org/Graphics/SVG/1.1/DTD/svg11.dtd"><svg t="1623742904104" class="icon" viewBox="0 0 1024 1024" version="1.1" xmlns="http://www.w3.org/2000/svg" p-id="1203" xmlns:xlink="http://www.w3.org/1999/xlink" width="64" height="64"><defs><style type="text/css"></style></defs><path d="M988.83508148 329.73710222l-2.01462518-6.37155555-101.76284445-279.55958519a19.77002667 19.77002667 0 0 0-18.56853333-13.01010963H157.93569185A19.77002667 19.77002667 0 0 0 139.4157037 43.80596148l-103.92310518 285.93114074a207.87048297 207.87048297 0 0 0-8.192 57.61099853c0 73.76440889 38.92110222 141.19367111 101.82352593 175.5879348 25.80176592 14.02955852 56.11823408 21.27492741 90.51249777 21.27492742 57.47749925 0 110.4402963-26.25080889 146.63073186-71.04587852a189.21699555 189.21699555 0 0 0 146.16955259 70.59683555c57.04059259-0.44904297 109.51793778-26.69985185 145.27146666-70.59683555a188.19754667 188.19754667 0 0 0 147.07977482 70.59683555c34.84330667 0 66.06999703-7.69441185 91.87176296-22.6220563 62.00433778-34.84330667 100.01521778-101.82352592 100.01521778-175.13889185a182.94253037 182.94253037 0 0 0-7.84004741-56.26386963z m-61.34897778 55.47501037v0.78885926c0 48.38741333-24.80658963 92.3936237-64.73500445 114.83363556l-0.38836147 0.21845334-0.38836148 0.21845333c-15.26746075 8.8352237-34.50349037 13.34992592-57.21050075 13.34992592a120.35565037 120.35565037 0 0 1-51.65207703-11.72366222 118.83861333 118.83861333 0 0 1-41.36049777-32.85295408l-38.22933334-47.90196148a19.77002667 19.77002667 0 0 0-30.77764741-0.15777185L604.0659437 469.52296297c-23.05896297 28.24116148-56.3730963 44.66157037-91.62903703 45.09847703a120.05224297 120.05224297 0 0 1-92.30866964-44.83147852l-38.42351406-47.65923556a19.77002667 19.77002667 0 0 0-30.76551112 0l-38.48419555 47.61069038a122.80718222 122.80718222 0 0 1-41.84594963 33.62967703 115.3554963 115.3554963 0 0 1-50.97244445 11.72366222c-22.39146667 0-41.68817778-4.30838518-57.3561363-12.81592888-40.58377482-22.20942222-65.79086222-66.21563259-65.79086222-114.87004445a139.47031703 139.47031703 0 0 1 6.38369185-41.44545185l0.09709037-0.3034074h0.15777186l89.40809481-245.68718222h639.35222519l89.49304889 245.88136295 0.44904296 1.37140148a115.05208889 115.05208889 0 0 1 5.66765037 37.20988445z" p-id="1204"></path><path d="M665.91250963 930.02258963m19.41807407 0l233.01688889 0q19.41807408 0 19.41807408 19.41807407l0 29.12711112q0 19.41807408-19.41807408 19.41807407l-233.01688889 0q-19.41807408 0-19.41807407-19.41807407l0-29.12711112q0-19.41807408 19.41807407-19.41807407Z" p-id="1205"></path><path d="M665.91250963 803.80510815m19.41807407 0l233.01688889 0q19.41807408 0 19.41807408 19.41807407l0 29.12711111q0 19.41807408-19.41807408 19.41807408l-233.01688889 0q-19.41807408 0-19.41807407-19.41807408l0-29.12711111q0-19.41807408 19.41807407-19.41807407Z" p-id="1206"></path><path d="M665.91250963 667.87858963m19.41807407 0l233.01688889 0q19.41807408 0 19.41807408 19.41807407l0 29.12711112q0 19.41807408-19.41807408 19.41807407l-233.01688889 0q-19.41807408 0-19.41807407-19.41807407l0-29.12711112q0-19.41807408 19.41807407-19.41807407Z" p-id="1207"></path><path d="M588.24021333 930.02258963h-427.19762963v-271.85303704a9.70903703 9.70903703 0 0 0-9.70903703-9.70903704h-48.54518519a9.70903703 9.70903703 0 0 0-9.70903703 9.70903704v300.98014816a38.83614815 38.83614815 0 0 0 38.83614814 38.83614814h456.32474074a9.70903703 9.70903703 0 0 0 9.70903704-9.70903704v-48.54518518a9.70903703 9.70903703 0 0 0-9.70903704-9.70903704z" p-id="1208"></path></svg>