<?xml version="1.0" standalone="no"?><!DOCTYPE svg PUBLIC "-//W3C//DTD SVG 1.1//EN" "http://www.w3.org/Graphics/SVG/1.1/DTD/svg11.dtd"><svg t="1587629120644" class="icon" viewBox="0 0 1024 1024" version="1.1" xmlns="http://www.w3.org/2000/svg" p-id="863" xmlns:xlink="http://www.w3.org/1999/xlink" width="128" height="128"><defs><style type="text/css"></style></defs><path d="M956.596224 924.67291022c2.67969422-7.68955733 4.42732089-15.72864 4.42732089-24.23375644L961.02354489 706.21957689c0-40.19541333-32.62236445-72.81777778-72.81777778-72.81777778L669.75243378 633.40179911c-8.50511645 0-16.66070755 1.74762667-24.23375645 4.42732089L645.51867733 123.67735467c0-40.19541333-32.62236445-72.81777778-72.81777778-72.81777778l-436.90666666 0c-40.19541333 0-72.81777778 32.62236445-72.81777778 72.81777778l0 776.64529066c0 8.50511645 1.74762667 16.66070755 4.42732089 24.23375645L2.27555555 924.55640178l0 48.58402133 133.51867734 0 436.90666666 0 97.05153423 0 218.45333333 0 133.51867734 0 0-48.58402133L956.596224 924.55640178zM596.934656 706.21957689l0 194.10306844c0 13.39847111-10.83528533 24.23375645-24.23375645 24.23375645l-436.90666666 0c-13.39847111 0-24.23375645-10.83528533-24.23375644-24.23375645L111.56047645 123.67735467c0-13.39847111 10.83528533-24.23375645 24.23375644-24.23375645l436.90666666 0c13.39847111 0 24.23375645 10.83528533 24.23375645 24.23375645L596.934656 706.21957689zM912.556032 900.32264533c0 13.39847111-10.83528533 24.23375645-24.23375645 24.23375645L669.75243378 924.55640178c-13.39847111 0-24.23375645-10.83528533-24.23375645-24.23375645L645.51867733 706.21957689c0-13.39847111 10.83528533-24.23375645 24.23375645-24.23375644l218.45333333 0c13.39847111 0 24.23375645 10.83528533 24.23375644 24.23375644L912.43952355 900.32264533z" p-id="864"></path><path d="M803.27111111 754.68708978l-48.58402133 0c-13.39847111 0-24.23375645 10.83528533-24.23375645 24.23375644l0 48.58402133c0 13.39847111 10.83528533 24.23375645 24.23375645 24.23375645L803.27111111 851.738624c13.39847111 0 24.23375645-10.83528533 24.23375644-24.23375645l0-48.58402133C827.50486755 765.63888355 816.66958222 754.68708978 803.27111111 754.68708978z" p-id="865"></path><path d="M305.66354489 560.58402133l-48.58402134 0c-13.39847111 0-24.23375645 10.83528533-24.23375644 24.23375645l0 48.58402133c0 13.39847111 10.83528533 24.23375645 24.23375644 24.23375644l48.58402134 0c13.39847111 0 24.23375645-10.83528533 24.23375644-24.23375644l0-48.58402133C330.01380978 571.41930667 319.062016 560.58402133 305.66354489 560.58402133z" p-id="866"></path><path d="M451.29910045 560.58402133l-48.58402134 0c-13.39847111 0-24.23375645 10.83528533-24.23375644 24.23375645l0 48.58402133c0 13.39847111 10.83528533 24.23375645 24.23375644 24.23375644l48.58402134 0c13.39847111 0 24.23375645-10.83528533 24.23375644-24.23375644l0-48.58402133C475.53285689 571.41930667 464.69757155 560.58402133 451.29910045 560.58402133z" p-id="867"></path><path d="M305.66354489 366.36444445l-48.58402134 0c-13.39847111 0-24.23375645 10.83528533-24.23375644 24.23375644l0 48.58402133c0 13.39847111 10.83528533 24.23375645 24.23375644 24.23375645l48.58402134 0c13.39847111 0 24.23375645-10.83528533 24.23375644-24.23375645l0-48.58402133C330.01380978 377.19972978 319.062016 366.36444445 305.66354489 366.36444445z" p-id="868"></path><path d="M451.29910045 366.36444445l-48.58402134 0c-13.39847111 0-24.23375645 10.83528533-24.23375644 24.23375644l0 48.58402133c0 13.39847111 10.83528533 24.23375645 24.23375644 24.23375645l48.58402134 0c13.39847111 0 24.23375645-10.83528533 24.23375644-24.23375645l0-48.58402133C475.53285689 377.19972978 464.69757155 366.36444445 451.29910045 366.36444445z" p-id="869"></path></svg>