<svg xmlns="http://www.w3.org/2000/svg" xmlns:xlink="http://www.w3.org/1999/xlink" version="1.1" width="17.83333396911621" height="12.291666984558105" viewBox="0 0 17.83333396911621 12.291666984558105"><path d="M13.2195,3.27224L16.3861,1.688906Q16.4742,1.6448589999999998,16.569200000000002,1.6188449999999999Q16.6642,1.5928309999999999,16.7624,1.585849Q16.8607,1.578867,16.958399999999997,1.591186Q17.0561,1.603504,17.1496,1.6346500000000002Q17.243,1.665796,17.3286,1.714572Q17.4141,1.7633480000000001,17.4885,1.827879Q17.5629,1.892411,17.6233,1.9702190000000002Q17.6837,2.04803,17.7278,2.13612Q17.8333,2.34727,17.8333,2.58333L17.8333,9.70833Q17.8333,9.80682,17.8141,9.90342Q17.7949,10.00002,17.7572,10.09102Q17.7195,10.18201,17.6648,10.2639Q17.6101,10.3458,17.5404,10.41544Q17.4708,10.48508,17.3889,10.5398Q17.307,10.59452,17.216,10.63221Q17.125,10.6699,17.0284,10.68912Q16.931800000000003,10.70833,16.8333,10.70833Q16.5973,10.70833,16.3861,10.60276L13.2195,9.01943L14.1139,7.23057L17.2805,8.81391L16.8333,9.70833L15.8333,9.70833L15.8333,2.58333L16.8333,2.58333L17.2805,3.47776L14.1139,5.06109L13.2195,3.27224ZM0,9.70833L0,2.58333Q0,1.513282,0.756641,0.756641Q1.513282,0,2.58333,0L12.0833,0Q13.1534,0,13.91,0.756641Q14.6667,1.513283,14.6667,2.58333L14.6667,9.70833Q14.6667,10.77838,13.91,11.535Q13.1534,12.2917,12.0833,12.2917L2.58333,12.2917Q1.513283,12.2917,0.756641,11.535Q0,10.77838,0,9.70833L0,9.70833ZM2,9.70833Q2,9.94996,2.1708499999999997,10.12081Q2.34171,10.29167,2.58333,10.29167L12.0833,10.29167Q12.325,10.29167,12.4958,10.12081Q12.6667,9.94996,12.6667,9.70833L12.6667,2.58333Q12.6667,2.34171,12.4958,2.1708499999999997Q12.325,2,12.0833,2L2.58333,2Q2.34171,2,2.1708499999999997,2.1708499999999997Q2,2.34171,2,2.58333L2,9.70833L2,9.70833ZM7.33333,2.77083Q8.73131,2.77083,9.71982,3.75935Q10.70833,4.74786,10.70833,6.14583Q10.70833,7.5438,9.71982,8.53232Q8.731300000000001,9.52083,7.33333,9.52083Q5.93536,9.52083,4.9468499999999995,8.53232Q3.95833,7.5438,3.95833,6.14583Q3.95833,4.74786,4.9468499999999995,3.75935Q5.93536,2.77083,7.33333,2.77083L7.33333,2.77083ZM7.33333,4.77083Q6.76379,4.77083,6.36106,5.17356Q5.95833,5.57629,5.95833,6.14583Q5.95833,6.71538,6.36106,7.11811Q6.76379,7.52083,7.33333,7.52083Q7.90288,7.52083,8.30561,7.11811Q8.70833,6.71538,8.70833,6.14583Q8.70833,5.57629,8.30561,5.17356Q7.90288,4.77083,7.33333,4.77083L7.33333,4.77083ZM14.6667,4.16667Q14.6667,4.26516,14.6475,4.36176Q14.6282,4.45836,14.5905,4.5493500000000004Q14.5529,4.64034,14.4981,4.72224Q14.4434,4.80413,14.3738,4.87377Q14.3041,4.94342,14.2222,4.998139999999999Q14.1403,5.05286,14.0493,5.09055Q13.9584,5.12824,13.8618,5.14745Q13.7652,5.16667,13.6667,5.16667Q13.5682,5.16667,13.4716,5.14745Q13.375,5.12824,13.284,5.09055Q13.193,5.05286,13.1111,4.998139999999999Q13.0292,4.94342,12.9596,4.87377Q12.8899,4.80413,12.8352,4.72224Q12.7805,4.64034,12.7428,4.5493500000000004Q12.7051,4.45836,12.6859,4.36176Q12.6667,4.26516,12.6667,4.16667Q12.6667,4.06818,12.6859,3.97158Q12.7051,3.87498,12.7428,3.78398Q12.7805,3.69299,12.8352,3.6111Q12.8899,3.5292,12.9596,3.45956Q13.0292,3.38992,13.1111,3.3352Q13.193,3.28048,13.284,3.24279Q13.375,3.2051,13.4716,3.18588Q13.5682,3.16667,13.6667,3.16667Q13.7652,3.16667,13.8618,3.18588Q13.9584,3.2051,14.0493,3.24279Q14.1403,3.28048,14.2222,3.3352Q14.3041,3.38992,14.3738,3.45956Q14.4434,3.5292,14.4981,3.6111Q14.5529,3.69299,14.5905,3.78398Q14.6282,3.87498,14.6475,3.97158Q14.6667,4.06818,14.6667,4.16667ZM14.6667,8.125Q14.6667,8.22349,14.6475,8.32009Q14.6282,8.41669,14.5905,8.50768Q14.5529,8.59868,14.4981,8.68057Q14.4434,8.76246,14.3738,8.83211Q14.3041,8.90175,14.2222,8.95647Q14.1403,9.01119,14.0493,9.04888Q13.9584,9.08657,13.8618,9.10578Q13.7652,9.125,13.6667,9.125Q13.5682,9.125,13.4716,9.10578Q13.375,9.08657,13.284,9.04888Q13.193,9.01119,13.1111,8.95647Q13.0292,8.90175,12.9596,8.83211Q12.8899,8.76246,12.8352,8.68057Q12.7805,8.59868,12.7428,8.50768Q12.7051,8.41669,12.6859,8.32009Q12.6667,8.22349,12.6667,8.125Q12.6667,8.02651,12.6859,7.92991Q12.7051,7.83331,12.7428,7.74232Q12.7805,7.65132,12.8352,7.56943Q12.8899,7.48754,12.9596,7.41789Q13.0292,7.34825,13.1111,7.29353Q13.193,7.23881,13.284,7.20112Q13.375,7.16343,13.4716,7.14421Q13.5682,7.125,13.6667,7.125Q13.7652,7.125,13.8618,7.14421Q13.9584,7.16343,14.0493,7.20112Q14.1403,7.23881,14.2222,7.29353Q14.3041,7.34825,14.3738,7.41789Q14.4434,7.48754,14.4981,7.56943Q14.5529,7.65132,14.5905,7.74232Q14.6282,7.83331,14.6475,7.92991Q14.6667,8.02651,14.6667,8.125Z" fill-opacity="1"/></svg>