<svg xmlns="http://www.w3.org/2000/svg" xmlns:xlink="http://www.w3.org/1999/xlink" version="1.1" width="16.25" height="16.25" viewBox="0 0 16.25 16.25"><path d="M7.33333,9.125L4.16667,9.125L4.16667,7.125L7.33333,7.125L7.33333,9.125ZM12.0833,5.95833L4.16667,5.95833L4.16667,3.95833L12.0833,3.95833L12.0833,5.95833ZM14.6253,15.2392L12.6461,13.6559L13.8955,12.0941L15.8747,13.6775L14.6253,15.2392ZM8.125,16.25L2.1875,16.25Q1.2814429999999999,16.25,0.640741,15.6093Q0,14.9686,0,14.0625L0,2.1875Q0,1.281442,0.640721,0.640721Q1.281442,0,2.1875,0L14.0625,0Q14.9686,0,15.6093,0.640741Q16.25,1.2814429999999999,16.25,2.1875L16.25,8.125L14.25,8.125L14.25,2.1875Q14.25,2,14.0625,2L2.1875,2Q2,2,2,2.1875L2,14.0625Q2,14.25,2.1875,14.25L8.125,14.25L8.125,16.25ZM11.2917,7.91667Q12.6896,7.91667,13.6782,8.90518Q14.6667,9.8937,14.6667,11.2917Q14.6667,12.6896,13.6782,13.6782Q12.6896,14.6667,11.2917,14.6667Q9.8937,14.6667,8.90518,13.6782Q7.91667,12.6896,7.91667,11.2917Q7.91667,9.8937,8.90518,8.90518Q9.8937,7.91667,11.2917,7.91667ZM11.2917,9.91667Q10.72212,9.91667,10.3194,10.3194Q9.91667,10.72212,9.91667,11.2917Q9.91667,11.8612,10.3194,12.2639Q10.72212,12.6667,11.2917,12.6667Q11.8612,12.6667,12.2639,12.2639Q12.6667,11.8612,12.6667,11.2917Q12.6667,10.72212,12.2639,10.3194Q11.8612,9.91667,11.2917,9.91667ZM9.125,15.25Q9.125,15.3485,9.10578,15.4451Q9.08657,15.5417,9.04888,15.6327Q9.01119,15.7237,8.95647,15.8056Q8.90175,15.8875,8.83211,15.9571Q8.76246,16.026699999999998,8.68057,16.0815Q8.59868,16.136200000000002,8.50768,16.1739Q8.41669,16.2116,8.32009,16.230800000000002Q8.22349,16.25,8.125,16.25Q8.02651,16.25,7.92991,16.230800000000002Q7.83331,16.2116,7.74232,16.1739Q7.65132,16.136200000000002,7.56943,16.0815Q7.48754,16.026699999999998,7.41789,15.9571Q7.34825,15.8875,7.29353,15.8056Q7.23881,15.7237,7.20112,15.6327Q7.16343,15.5417,7.14421,15.4451Q7.125,15.3485,7.125,15.25Q7.125,15.1515,7.14421,15.0549Q7.16343,14.9583,7.20112,14.8673Q7.23881,14.7763,7.29353,14.6944Q7.34825,14.6125,7.41789,14.5429Q7.48754,14.4732,7.56943,14.4185Q7.65132,14.3638,7.74232,14.3261Q7.83331,14.2884,7.92991,14.2692Q8.02651,14.25,8.125,14.25Q8.22349,14.25,8.32009,14.2692Q8.41669,14.2884,8.50768,14.3261Q8.59868,14.3638,8.68057,14.4185Q8.76246,14.4732,8.83211,14.5429Q8.90175,14.6125,8.95647,14.6944Q9.01119,14.7763,9.04888,14.8673Q9.08657,14.9583,9.10578,15.0549Q9.125,15.1515,9.125,15.25ZM5.16667,8.125Q5.16667,8.22349,5.14745,8.32009Q5.12824,8.41669,5.09055,8.50768Q5.05286,8.59868,4.998139999999999,8.68057Q4.94342,8.76246,4.87377,8.83211Q4.80413,8.90175,4.72224,8.95647Q4.64034,9.01119,4.5493500000000004,9.04888Q4.45836,9.08657,4.36176,9.10578Q4.26516,9.125,4.16667,9.125Q4.06818,9.125,3.97158,9.10578Q3.87498,9.08657,3.78398,9.04888Q3.69299,9.01119,3.6111,8.95647Q3.5292,8.90175,3.45956,8.83211Q3.38992,8.76246,3.3352,8.68057Q3.28048,8.59868,3.24279,8.50768Q3.2051,8.41669,3.18588,8.32009Q3.16667,8.22349,3.16667,8.125Q3.16667,8.02651,3.18588,7.92991Q3.2051,7.83331,3.24279,7.74232Q3.28048,7.65132,3.3352,7.56943Q3.38992,7.48754,3.45956,7.41789Q3.5292,7.34825,3.6111,7.29353Q3.69299,7.23881,3.78398,7.20112Q3.87498,7.16343,3.97158,7.14421Q4.06818,7.125,4.16667,7.125Q4.26516,7.125,4.36176,7.14421Q4.45836,7.16343,4.5493500000000004,7.20112Q4.64034,7.23881,4.72224,7.29353Q4.80413,7.34825,4.87377,7.41789Q4.94342,7.48754,4.998139999999999,7.56943Q5.05286,7.65132,5.09055,7.74232Q5.12824,7.83331,5.14745,7.92991Q5.16667,8.02651,5.16667,8.125ZM8.33333,8.125Q8.33333,8.22349,8.314119999999999,8.32009Q8.2949,8.41669,8.25721,8.50768Q8.21952,8.59868,8.1648,8.68057Q8.11008,8.76246,8.04044,8.83211Q7.9708,8.90175,7.8889,8.95647Q7.80701,9.01119,7.71602,9.04888Q7.62502,9.08657,7.52842,9.10578Q7.43182,9.125,7.33333,9.125Q7.23484,9.125,7.13824,9.10578Q7.04164,9.08657,6.95065,9.04888Q6.85965,9.01119,6.77776,8.95647Q6.69587,8.90175,6.62623,8.83211Q6.55658,8.76246,6.50186,8.68057Q6.44714,8.59868,6.40945,8.50768Q6.37176,8.41669,6.35255,8.32009Q6.33333,8.22349,6.33333,8.125Q6.33333,8.02651,6.35255,7.92991Q6.37176,7.83331,6.40945,7.74232Q6.44714,7.65132,6.50186,7.56943Q6.55658,7.48754,6.62623,7.41789Q6.69587,7.34825,6.77776,7.29353Q6.85965,7.23881,6.95065,7.20112Q7.04164,7.16343,7.13824,7.14421Q7.23484,7.125,7.33333,7.125Q7.43182,7.125,7.52842,7.14421Q7.62502,7.16343,7.71602,7.20112Q7.80701,7.23881,7.8889,7.29353Q7.9708,7.34825,8.04044,7.41789Q8.11008,7.48754,8.1648,7.56943Q8.21952,7.65132,8.25721,7.74232Q8.2949,7.83331,8.314119999999999,7.92991Q8.33333,8.02651,8.33333,8.125ZM5.16667,4.95833Q5.16667,5.05682,5.14745,5.15342Q5.12824,5.25002,5.09055,5.34102Q5.05286,5.43201,4.998139999999999,5.5139Q4.94342,5.5958,4.87377,5.66544Q4.80413,5.73508,4.72224,5.7898Q4.64034,5.84452,4.5493500000000004,5.88221Q4.45836,5.9199,4.36176,5.93912Q4.26516,5.95833,4.16667,5.95833Q4.06818,5.95833,3.97158,5.93912Q3.87498,5.9199,3.78398,5.88221Q3.69299,5.84452,3.6111,5.7898Q3.5292,5.73508,3.45956,5.66544Q3.38992,5.5958,3.3352,5.5139Q3.28048,5.43201,3.24279,5.34102Q3.2051,5.25002,3.18588,5.15342Q3.16667,5.05682,3.16667,4.95833Q3.16667,4.85984,3.18588,4.76324Q3.2051,4.66664,3.24279,4.5756499999999996Q3.28048,4.48466,3.3352,4.40276Q3.38992,4.32087,3.45956,4.25123Q3.5292,4.18158,3.6111,4.126860000000001Q3.69299,4.07214,3.78398,4.03445Q3.87498,3.99676,3.97158,3.97755Q4.06818,3.95833,4.16667,3.95833Q4.26516,3.95833,4.36176,3.97755Q4.45836,3.99676,4.5493500000000004,4.03445Q4.64034,4.07214,4.72224,4.126860000000001Q4.80413,4.18158,4.87377,4.25123Q4.94342,4.32087,4.998139999999999,4.40276Q5.05286,4.48466,5.09055,4.5756499999999996Q5.12824,4.66664,5.14745,4.76324Q5.16667,4.85984,5.16667,4.95833ZM16.25,14.4583Q16.25,14.5568,16.230800000000002,14.6534Q16.2116,14.75,16.1739,14.841Q16.136200000000002,14.932,16.0815,15.0139Q16.026699999999998,15.0958,15.9571,15.1654Q15.8875,15.2351,15.8056,15.2898Q15.7237,15.3445,15.6327,15.3822Q15.5417,15.4199,15.4451,15.4391Q15.3485,15.4583,15.25,15.4583Q15.1515,15.4583,15.0549,15.4391Q14.9583,15.4199,14.8673,15.3822Q14.7763,15.3445,14.6944,15.2898Q14.6125,15.2351,14.5429,15.1654Q14.4732,15.0958,14.4185,15.0139Q14.3638,14.932,14.3261,14.841Q14.2884,14.75,14.2692,14.6534Q14.25,14.5568,14.25,14.4583Q14.25,14.3598,14.2692,14.2632Q14.2884,14.1666,14.3261,14.0756Q14.3638,13.9847,14.4185,13.9028Q14.4732,13.8209,14.5429,13.7512Q14.6125,13.6816,14.6944,13.6269Q14.7763,13.5721,14.8673,13.5345Q14.9583,13.4968,15.0549,13.4775Q15.1515,13.4583,15.25,13.4583Q15.3485,13.4583,15.4451,13.4775Q15.5417,13.4968,15.6327,13.5345Q15.7237,13.5721,15.8056,13.6269Q15.8875,13.6816,15.9571,13.7512Q16.026699999999998,13.8209,16.0815,13.9028Q16.136200000000002,13.9847,16.1739,14.0756Q16.2116,14.1666,16.230800000000002,14.2632Q16.25,14.3598,16.25,14.4583ZM14.2708,12.875Q14.2708,12.9735,14.2516,13.0701Q14.2324,13.1667,14.1947,13.2577Q14.157,13.3487,14.1023,13.4306Q14.0476,13.5125,13.9779,13.5821Q13.9083,13.6517,13.8264,13.7065Q13.7445,13.7612,13.6535,13.7989Q13.5625,13.8366,13.4659,13.8558Q13.3693,13.875,13.2708,13.875Q13.1723,13.875,13.0757,13.8558Q12.9791,13.8366,12.8881,13.7989Q12.7972,13.7612,12.7153,13.7065Q12.6334,13.6517,12.5637,13.5821Q12.4941,13.5125,12.4394,13.4306Q12.3846,13.3487,12.347,13.2577Q12.3093,13.1667,12.29,13.0701Q12.2708,12.9735,12.2708,12.875Q12.2708,12.7765,12.29,12.6799Q12.3093,12.5833,12.347,12.4923Q12.3846,12.4013,12.4394,12.3194Q12.4941,12.2375,12.5637,12.1679Q12.6334,12.0982,12.7153,12.0435Q12.7972,11.9888,12.8881,11.9511Q12.9791,11.9134,13.0757,11.8942Q13.1723,11.875,13.2708,11.875Q13.3693,11.875,13.4659,11.8942Q13.5625,11.9134,13.6535,11.9511Q13.7445,11.9888,13.8264,12.0435Q13.9083,12.0982,13.9779,12.1679Q14.0476,12.2375,14.1023,12.3194Q14.157,12.4013,14.1947,12.4923Q14.2324,12.5833,14.2516,12.6799Q14.2708,12.7765,14.2708,12.875ZM13.0833,4.95833Q13.0833,5.05682,13.0641,5.15342Q13.0449,5.25002,13.0072,5.34102Q12.9695,5.43201,12.9148,5.5139Q12.8601,5.5958,12.7904,5.66544Q12.7208,5.73508,12.6389,5.7898Q12.557,5.84452,12.466,5.88221Q12.375,5.9199,12.2784,5.93912Q12.1818,5.95833,12.0833,5.95833Q11.9848,5.95833,11.8882,5.93912Q11.7916,5.9199,11.7007,5.88221Q11.6097,5.84452,11.5278,5.7898Q11.4459,5.73508,11.3762,5.66544Q11.3066,5.5958,11.2519,5.5139Q11.1971,5.43201,11.1595,5.34102Q11.1218,5.25002,11.1025,5.15342Q11.0833,5.05682,11.0833,4.95833Q11.0833,4.85984,11.1025,4.76324Q11.1218,4.66664,11.1595,4.5756499999999996Q11.1971,4.48466,11.2519,4.40276Q11.3066,4.32087,11.3762,4.25123Q11.4459,4.18158,11.5278,4.126860000000001Q11.6097,4.07214,11.7006,4.03445Q11.7916,3.99676,11.8882,3.97755Q11.9848,3.95833,12.0833,3.95833Q12.1818,3.95833,12.2784,3.97755Q12.375,3.99676,12.466,4.03445Q12.557,4.07214,12.6389,4.126860000000001Q12.7208,4.18158,12.7904,4.25123Q12.8601,4.32087,12.9148,4.40276Q12.9695,4.48466,13.0072,4.5756499999999996Q13.0449,4.66664,13.0641,4.76324Q13.0833,4.85984,13.0833,4.95833ZM16.25,8.125Q16.25,8.22349,16.230800000000002,8.32009Q16.2116,8.41669,16.1739,8.50768Q16.136200000000002,8.59868,16.0815,8.68057Q16.026699999999998,8.76246,15.9571,8.83211Q15.8875,8.90175,15.8056,8.95647Q15.7237,9.01119,15.6327,9.04888Q15.5417,9.08657,15.4451,9.10578Q15.3485,9.125,15.25,9.125Q15.1515,9.125,15.0549,9.10578Q14.9583,9.08657,14.8673,9.04888Q14.7763,9.01119,14.6944,8.95647Q14.6125,8.90175,14.5429,8.83211Q14.4732,8.76246,14.4185,8.68057Q14.3638,8.59868,14.3261,8.50768Q14.2884,8.41669,14.2692,8.32009Q14.25,8.22349,14.25,8.125Q14.25,8.02651,14.2692,7.92991Q14.2884,7.83331,14.3261,7.74232Q14.3638,7.65132,14.4185,7.56943Q14.4732,7.48754,14.5429,7.41789Q14.6125,7.34825,14.6944,7.29353Q14.7763,7.23881,14.8673,7.20112Q14.9583,7.16343,15.0549,7.14421Q15.1515,7.125,15.25,7.125Q15.3485,7.125,15.4451,7.14421Q15.5417,7.16343,15.6327,7.20112Q15.7237,7.23881,15.8056,7.29353Q15.8875,7.34825,15.9571,7.41789Q16.026699999999998,7.48754,16.0815,7.56943Q16.136200000000002,7.65132,16.1739,7.74232Q16.2116,7.83331,16.230800000000002,7.92991Q16.25,8.02651,16.25,8.125Z" fill-opacity="1"/></svg>