<?xml version="1.0" standalone="no"?><!DOCTYPE svg PUBLIC "-//W3C//DTD SVG 1.1//EN" "http://www.w3.org/Graphics/SVG/1.1/DTD/svg11.dtd"><svg t="1653882165403" class="icon" viewBox="0 0 1024 1024" version="1.1" xmlns="http://www.w3.org/2000/svg" p-id="2777" xmlns:xlink="http://www.w3.org/1999/xlink" width="32" height="32"><defs><style type="text/css">@font-face { font-family: feedback-iconfont; src: url("//at.alicdn.com/t/font_1031158_u69w8yhxdu.woff2?t=1630033759944") format("woff2"), url("//at.alicdn.com/t/font_1031158_u69w8yhxdu.woff?t=1630033759944") format("woff"), url("//at.alicdn.com/t/font_1031158_u69w8yhxdu.ttf?t=1630033759944") format("truetype"); }
</style></defs><path d="M810.666667 731.733333H119.466667c-12.8 0-23.466667-10.666667-23.466667-23.466666V313.6c0-6.4 2.133333-12.8 6.4-17.066667L206.933333 192H810.666667c12.8 0 23.466667 10.666667 23.466666 23.466667v492.8c2.133333 12.8-8.533333 23.466667-23.466666 23.466666z m-672-42.666666h654.933333V234.666667H226.133333l-87.466666 87.466666v366.933334z" p-id="2778"></path><path d="M213.333333 362.666667H123.733333c-12.8 0-21.333333-8.533333-21.333333-21.333334s8.533333-21.333333 21.333333-21.333333H213.333333c4.266667 0 6.4-4.266667 6.4-6.4V213.333333c0-12.8 8.533333-21.333333 21.333334-21.333333s21.333333 8.533333 21.333333 21.333333v100.266667c0 27.733333-21.333333 49.066667-49.066667 49.066667zM392.533333 398.933333c-6.4 0-10.666667-2.133333-14.933333-6.4l-64-64c-8.533333-8.533333-8.533333-21.333333 0-29.866666s21.333333-8.533333 29.866667 0l64 64c8.533333 8.533333 8.533333 21.333333 0 29.866666-4.266667 4.266667-10.666667 6.4-14.933334 6.4z" p-id="2779"></path><path d="M392.533333 398.933333c-6.4 0-10.666667-2.133333-14.933333-6.4-8.533333-8.533333-8.533333-21.333333 0-29.866666l64-64c8.533333-8.533333 21.333333-8.533333 29.866667 0s8.533333 21.333333 0 29.866666l-64 64c-4.266667 4.266667-10.666667 6.4-14.933334 6.4z" p-id="2780"></path><path d="M467.2 420.266667h-151.466667c-12.8 0-21.333333-8.533333-21.333333-21.333334s8.533333-21.333333 21.333333-21.333333h151.466667c12.8 0 21.333333 8.533333 21.333333 21.333333s-10.666667 21.333333-21.333333 21.333334zM467.2 494.933333h-151.466667c-12.8 0-21.333333-8.533333-21.333333-21.333333s8.533333-21.333333 21.333333-21.333333h151.466667c12.8 0 21.333333 8.533333 21.333333 21.333333s-10.666667 21.333333-21.333333 21.333333z" p-id="2781"></path><path d="M392.533333 571.733333c-12.8 0-21.333333-8.533333-21.333333-21.333333v-162.133333c0-12.8 8.533333-21.333333 21.333333-21.333334s21.333333 8.533333 21.333334 21.333334v162.133333c0 10.666667-10.666667 21.333333-21.333334 21.333333zM731.733333 448h-170.666666c-12.8 0-21.333333-8.533333-21.333334-21.333333s8.533333-21.333333 21.333334-21.333334h170.666666c12.8 0 21.333333 8.533333 21.333334 21.333334s-8.533333 21.333333-21.333334 21.333333zM731.733333 533.333333h-170.666666c-12.8 0-21.333333-8.533333-21.333334-21.333333s8.533333-21.333333 21.333334-21.333333h170.666666c12.8 0 21.333333 8.533333 21.333334 21.333333s-8.533333 21.333333-21.333334 21.333333zM731.733333 650.666667h-533.333333c-12.8 0-21.333333-8.533333-21.333333-21.333334s8.533333-21.333333 21.333333-21.333333h533.333333c12.8 0 21.333333 8.533333 21.333334 21.333333s-8.533333 21.333333-21.333334 21.333334z" p-id="2782"></path><path d="M902.4 821.333333H194.133333c-12.8 0-21.333333-8.533333-21.333333-21.333333s8.533333-21.333333 21.333333-21.333333h686.933334V465.066667c0-12.8 8.533333-21.333333 21.333333-21.333334s21.333333 8.533333 21.333333 21.333334v337.066666c0 10.666667-8.533333 19.2-21.333333 19.2z" p-id="2783"></path></svg>