<svg xmlns="http://www.w3.org/2000/svg" xmlns:xlink="http://www.w3.org/1999/xlink" fill="none" version="1.1" width="17" height="17" viewBox="0 0 17 17"><clipPath id="master_svg0_1874_013550/1874_013218"><rect x="0" y="0" width="17" height="17" rx="0"/></clipPath><g clip-path="url(#master_svg0_1874_013550/1874_013218)"><g><rect x="0" y="0" width="17" height="17" rx="0" fill="#FFFFFF" fill-opacity="0.009999999776482582"/><path d="M12.750048046875,11.900659406738281L15.583448046875,11.900659406738281L15.583448046875,12.40062940673828L15.083448046875,12.40062940673828L15.083448046875,2.8378294067382814Q15.083448046875,2.6298294067382812,14.875048046875,2.6298294067382812L2.125081046875,2.6298294067382812Q1.916748046875,2.6298294067382812,1.916748046875,2.8378294067382814L1.916748046875,12.40062940673828L1.416748046875,12.40062940673828L1.416748046875,11.900659406738281L3.187578046875,11.900659406738281L4.250078046875,11.900659406738281Q4.299328046875,11.900659406738281,4.347628046875,11.910269406738282Q4.3959280468749995,11.91986940673828,4.441418046875,11.938719406738281Q4.486918046875,11.957559406738282,4.527868046875,11.984919406738282Q4.5688080468750005,12.012279406738282,4.603638046875,12.047099406738282Q4.638458046875,12.081929406738281,4.665818046875,12.122869406738282Q4.6931780468749995,12.163829406738282,4.712018046875,12.20932940673828Q4.730868046875,12.254829406738281,4.740478046874999,12.30312940673828Q4.750078046875,12.351429406738282,4.750078046875,12.40062940673828Q4.750078046875,12.449929406738281,4.740478046874999,12.49822940673828Q4.730868046875,12.546529406738282,4.712018046875,12.59202940673828Q4.6931780468749995,12.637529406738281,4.665818046875,12.678429406738282Q4.638458046875,12.719429406738282,4.603638046875,12.75422940673828Q4.5688080468750005,12.789029406738281,4.527868046875,12.816429406738282Q4.486918046875,12.843729406738282,4.441428046875,12.86262940673828Q4.3959280468749995,12.881429406738281,4.347628046875,12.891029406738282Q4.299328046875,12.90062940673828,4.250078046875,12.90062940673828L3.187578046875,12.90062940673828L1.416748046875,12.90062940673828Q1.367502346875,12.90062940673828,1.319202946875,12.891029406738282Q1.270903046875,12.881429406738281,1.2254060468749999,12.86262940673828Q1.179909046875,12.843729406738282,1.138963046875,12.816429406738282Q1.098017046875,12.789029406738281,1.063195046875,12.75422940673828Q1.028373046875,12.719429406738282,1.001013046875,12.678429406738282Q0.973654046875,12.637529406738281,0.954808046875,12.59202940673828Q0.935963046875,12.546529406738282,0.9263550468749999,12.49822940673828Q0.916748046875,12.449929406738281,0.916748046875,12.40062940673828L0.916748046875,2.8378294067382814Q0.916748046875,2.3373904067382814,1.270744046875,1.9835614067382812Q1.624642046875,1.6298294067382812,2.125081046875,1.6298294067382812L14.875048046875,1.6298294067382812Q15.375548046875,1.6298294067382812,15.729448046875,1.9835634067382812Q16.083448046875,2.337391406738281,16.083448046875,2.8378294067382814L16.083448046875,12.40062940673828Q16.083448046875,12.449929406738281,16.073848046875,12.49822940673828Q16.064248046875,12.546529406738282,16.045348046875,12.59202940673828Q16.026548046875,12.637529406738281,15.999148046875,12.678429406738282Q15.971748046875,12.719429406738282,15.936948046875,12.75422940673828Q15.902148046875,12.789029406738281,15.861248046875,12.816429406738282Q15.820248046875,12.843729406738282,15.774748046875,12.86262940673828Q15.729248046875,12.881429406738281,15.680948046875,12.891029406738282Q15.632648046875,12.90062940673828,15.583448046875,12.90062940673828L12.750048046875,12.90062940673828Q12.700848046875,12.90062940673828,12.652548046875,12.891029406738282Q12.604248046875,12.881429406738281,12.558748046875,12.86262940673828Q12.513248046875,12.843729406738282,12.472248046875,12.816429406738282Q12.431348046875,12.789029406738281,12.396548046875,12.75422940673828Q12.361748046875,12.719429406738282,12.334348046875,12.678429406738282Q12.306948046875,12.637529406738281,12.288148046875,12.59202940673828Q12.269248046875,12.546529406738282,12.259648046875,12.49822940673828Q12.250048046875,12.449929406738281,12.250048046875,12.40062940673828Q12.250048046875,12.351429406738282,12.259648046875,12.30312940673828Q12.269248046875,12.254829406738281,12.288148046875,12.20932940673828Q12.306948046875,12.163829406738282,12.334348046875,12.122869406738282Q12.361748046875,12.081929406738281,12.396548046875,12.047099406738282Q12.431348046875,12.012279406738282,12.472248046875,11.984919406738282Q12.513248046875,11.957559406738282,12.558748046875,11.938719406738281Q12.604248046875,11.91986940673828,12.652548046875,11.910269406738282Q12.700848046875,11.900659406738281,12.750048046875,11.900659406738281ZM13.250048046875,12.40062940673828Q13.250048046875,12.449929406738281,13.240448046875,12.49822940673828Q13.230848046875,12.546529406738282,13.212048046875,12.59202940673828Q13.193148046875,12.637529406738281,13.165848046875,12.678429406738282Q13.138448046875,12.719429406738282,13.103648046875,12.75422940673828Q13.068848046875,12.789029406738281,13.027848046875,12.816429406738282Q12.986948046875,12.843729406738282,12.941448046875,12.86262940673828Q12.895948046875,12.881429406738281,12.847648046875,12.891029406738282Q12.799348046875,12.90062940673828,12.750048046875,12.90062940673828Q12.700848046875,12.90062940673828,12.652548046875,12.891029406738282Q12.604248046875,12.881429406738281,12.558748046875,12.86262940673828Q12.513248046875,12.843729406738282,12.472248046875,12.816429406738282Q12.431348046875,12.789029406738281,12.396548046875,12.75422940673828Q12.361748046875,12.719429406738282,12.334348046875,12.678429406738282Q12.306948046875,12.637529406738281,12.288148046875,12.59202940673828Q12.269248046875,12.546529406738282,12.259648046875,12.49822940673828Q12.250048046875,12.449929406738281,12.250048046875,12.40062940673828Q12.250048046875,12.351429406738282,12.259648046875,12.30312940673828Q12.269248046875,12.254829406738281,12.288148046875,12.20932940673828Q12.306948046875,12.163829406738282,12.334348046875,12.122869406738282Q12.361748046875,12.081929406738281,12.396548046875,12.047099406738282Q12.431348046875,12.012279406738282,12.472248046875,11.984919406738282Q12.513248046875,11.957559406738282,12.558748046875,11.938719406738281Q12.604248046875,11.91986940673828,12.652548046875,11.910269406738282Q12.700848046875,11.900659406738281,12.750048046875,11.900659406738281Q12.799348046875,11.900659406738281,12.847648046875,11.910269406738282Q12.895948046875,11.91986940673828,12.941448046875,11.938719406738281Q12.986948046875,11.957559406738282,13.027848046875,11.984919406738282Q13.068848046875,12.012279406738282,13.103648046875,12.047099406738282Q13.138448046875,12.081929406738281,13.165848046875,12.122869406738282Q13.193148046875,12.163829406738282,13.212048046875,12.20932940673828Q13.230848046875,12.254829406738281,13.240448046875,12.30312940673828Q13.250048046875,12.351429406738282,13.250048046875,12.40062940673828ZM4.750078046875,12.40062940673828Q4.750078046875,12.449929406738281,4.740478046874999,12.49822940673828Q4.730868046875,12.546529406738282,4.712018046875,12.59202940673828Q4.6931780468749995,12.637529406738281,4.665818046875,12.678429406738282Q4.638458046875,12.719429406738282,4.603638046875,12.75422940673828Q4.5688080468750005,12.789029406738281,4.527868046875,12.816429406738282Q4.486918046875,12.843729406738282,4.441428046875,12.86262940673828Q4.3959280468749995,12.881429406738281,4.347628046875,12.891029406738282Q4.299328046875,12.90062940673828,4.250078046875,12.90062940673828Q4.200838046875,12.90062940673828,4.152538046875,12.891029406738282Q4.104238046875,12.881429406738281,4.058738046875,12.86262940673828Q4.013238046875,12.843729406738282,3.972298046875,12.816429406738282Q3.931348046875,12.789029406738281,3.896528046875,12.75422940673828Q3.861708046875,12.719429406738282,3.834348046875,12.678429406738282Q3.806988046875,12.637529406738281,3.788138046875,12.59202940673828Q3.769298046875,12.546529406738282,3.759688046875,12.49822940673828Q3.750078046875,12.449929406738281,3.750078046875,12.40062940673828Q3.750078046875,12.351429406738282,3.759688046875,12.30312940673828Q3.769298046875,12.254829406738281,3.788138046875,12.20932940673828Q3.806988046875,12.163829406738282,3.834348046875,12.122869406738282Q3.861708046875,12.081929406738281,3.896528046875,12.047099406738282Q3.931348046875,12.012279406738282,3.972298046875,11.984919406738282Q4.013238046875,11.957559406738282,4.058738046875,11.938719406738281Q4.104238046875,11.91986940673828,4.152538046875,11.910269406738282Q4.200838046875,11.900659406738281,4.250078046875,11.900659406738281Q4.299328046875,11.900659406738281,4.347628046875,11.910269406738282Q4.3959280468749995,11.91986940673828,4.441418046875,11.938719406738281Q4.486918046875,11.957559406738282,4.527868046875,11.984919406738282Q4.5688080468750005,12.012279406738282,4.603638046875,12.047099406738282Q4.638458046875,12.081929406738281,4.665818046875,12.122869406738282Q4.6931780468749995,12.163829406738282,4.712018046875,12.20932940673828Q4.730868046875,12.254829406738281,4.740478046874999,12.30312940673828Q4.750078046875,12.351429406738282,4.750078046875,12.40062940673828Z" fill="#6B7280" fill-opacity="1"/><path d="M8.499921953125,11.333320617675781L4.958251953125,14.874990617675781L12.041581953125,14.874990617675781L8.499921953125,11.333320617675781Z" fill="#6B7280" fill-opacity="1"/><path d="M11.688031953125,15.228540617675781L8.146361953125,11.686873617675781L8.499921953125,11.333320617675781L8.853471953125,11.686873617675781L5.311804953125,15.228540617675781L4.958251953125,14.874990617675781L4.958251953125,14.374990617675781L12.041581953125,14.374990617675781L12.041581953125,14.874990617675781L11.688031953125,15.228540617675781ZM12.395141953125,14.521430617675781Q12.465461953125,14.591760617675781,12.503521953125,14.683640617675781Q12.541581953125,14.77553061767578,12.541581953125,14.874990617675781Q12.541581953125,14.924230617675782,12.531981953125001,14.972530617675782Q12.522371953124999,15.02083061767578,12.503521953125,15.066330617675781Q12.484681953125001,15.111830617675782,12.457321953125,15.152770617675781Q12.429961953125,15.193720617675782,12.395141953125,15.228540617675781Q12.360311953124999,15.263360617675781,12.319371953125,15.290720617675781Q12.278421953125001,15.31808061767578,12.232921953125,15.336930617675781Q12.187431953125,15.35577061767578,12.139131953125,15.365380617675783Q12.090831953125,15.374990617675781,12.041581953125,15.374990617675781L4.958251953125,15.374990617675781Q4.858795753125,15.374990617675781,4.766909953125,15.336930617675781Q4.675024953125,15.298870617675782,4.604698953125,15.228540617675781Q4.569876953125,15.193720617675782,4.542516953125,15.152770617675781Q4.515157953125,15.111830617675782,4.496311953125,15.066330617675781Q4.477466953125,15.02083061767578,4.467858953125,14.972530617675782Q4.458251953125,14.924230617675782,4.458251953125,14.874990617675781Q4.458251953125,14.82574061767578,4.467858953125,14.777440617675781Q4.477466953125,14.729140617675782,4.496311953125,14.683640617675781Q4.515157953125,14.63815061767578,4.542516953125,14.597200617675782Q4.569876953125,14.55626061767578,4.604698953125,14.521430617675781L8.146361953125,10.979767617675781Q8.181191953125,10.944945617675781,8.222131953125,10.917585617675782Q8.263081953124999,10.890226617675781,8.308571953125,10.871380617675781Q8.354071953125,10.85253561767578,8.402371953125,10.842927617675782Q8.450671953125,10.833320617675781,8.499921953125,10.833320617675781Q8.549161953125001,10.833320617675781,8.597461953125,10.842927617675782Q8.645761953125,10.85253561767578,8.691261953125,10.871380617675781Q8.736761953125,10.890226617675781,8.777701953125,10.917585617675782Q8.818651953125,10.944945617675781,8.853471953125,10.979767617675781L12.395141953125,14.521430617675781Z" fill="#6B7280" fill-opacity="1"/></g></g></svg>