<svg xmlns="http://www.w3.org/2000/svg" xmlns:xlink="http://www.w3.org/1999/xlink" fill="none" version="1.1" width="14" height="17" viewBox="0 0 14 17"><path d="M9.16667,10.4Q10.2138,10.4,10.9192,11.0017Q11.6364,11.6135,11.6364,12.5L11.1364,12.5L11.1364,12L13.5,12L13.5,12.5L13,12.5L13,0.5L13.5,0.5L13.5,1L11.1364,1L11.1364,0.5L11.6364,0.5Q11.6364,1.3562560000000001,10.923,1.97716Q10.20731,2.6,9.16667,2.6Q8.12602,2.6,7.41038,1.97716Q6.69697,1.3562560000000001,6.69697,0.500000596046L7.19697,0.5L7.19697,1L4.83333,1L4.83333,0.5L5.33333,0.5L5.33333,6.1Q5.33333,6.14924,5.32373,6.19754Q5.31412,6.24584,5.29527,6.29134Q5.27643,6.33684,5.24907,6.37778Q5.22171,6.41873,5.18689,6.45355Q5.15206,6.48837,5.11112,6.51573Q5.07017,6.54309,5.02467,6.56194Q4.97918,6.58078,4.93088,6.59039Q4.88258,6.6,4.83333,6.6Q4.78409,6.6,4.73579,6.59039Q4.68749,6.58078,4.64199,6.56194Q4.59649,6.54309,4.55555,6.51573Q4.5146,6.48837,4.47978,6.45355Q4.44496,6.41873,4.4176,6.37778Q4.39024,6.33684,4.37139,6.29134Q4.35255,6.24584,4.3429400000000005,6.19754Q4.33333,6.14924,4.33333,6.1L4.33333,0.5Q4.33333,0.4507543,4.3429400000000005,0.4024549Q4.35255,0.354155,4.37139,0.308658Q4.39024,0.263161,4.4176,0.222215Q4.44496,0.181269,4.47978,0.146447Q4.5146,0.11162499999999997,4.55555,0.08426499999999998Q4.59649,0.05690600000000001,4.64199,0.03805999999999998Q4.68749,0.019214999999999982,4.73579,0.009606999999999977Q4.78409,0,4.83333,0L7.19697,0Q7.24622,0,7.29452,0.009606999999999977Q7.34281,0.019214999999999982,7.38831,0.03805999999999998Q7.43381,0.05690600000000001,7.47475,0.08426499999999998Q7.5157,0.11162499999999997,7.55052,0.14644600000000002Q7.58534,0.18126799999999998,7.6127,0.222215Q7.64006,0.263161,7.65891,0.308658Q7.67775,0.354155,7.68736,0.4024544Q7.69697,0.4507538,7.69697,0.499999403954Q7.69697,0.900888,8.06689,1.2228400000000001Q8.50024,1.6,9.16667,1.6Q9.83309,1.6,10.26644,1.2228400000000001Q10.6364,0.900888,10.6364,0.5Q10.6364,0.4507543,10.646,0.4024549Q10.6556,0.354155,10.6744,0.308658Q10.6933,0.263161,10.7206,0.222215Q10.748,0.181269,10.7828,0.146447Q10.8176,0.11162499999999997,10.8586,0.08426499999999998Q10.8995,0.05690600000000001,10.945,0.03805999999999998Q10.9905,0.019214999999999982,11.0388,0.009606999999999977Q11.0871,0,11.1364,0L13.5,0Q13.5492,0,13.5975,0.009606999999999977Q13.6458,0.019214999999999982,13.6913,0.03805999999999998Q13.7368,0.05690600000000001,13.7778,0.08426499999999998Q13.8187,0.11162499999999997,13.8536,0.146447Q13.8884,0.181269,13.9157,0.222215Q13.9431,0.263161,13.9619,0.308658Q13.9808,0.354155,13.9904,0.4024549Q14,0.4507543,14,0.5L14,12.5Q14,12.5492,13.9904,12.5975Q13.9808,12.6458,13.9619,12.6913Q13.9431,12.7368,13.9157,12.7778Q13.8884,12.8187,13.8536,12.8536Q13.8187,12.8884,13.7778,12.9157Q13.7368,12.9431,13.6913,12.9619Q13.6458,12.9808,13.5975,12.9904Q13.5492,13,13.5,13L11.1364,13Q11.0871,13,11.0388,12.9904Q10.9905,12.9808,10.945,12.9619Q10.8995,12.9431,10.8586,12.9157Q10.8176,12.8884,10.7828,12.8536Q10.748,12.8187,10.7206,12.7778Q10.6933,12.7368,10.6744,12.6913Q10.6556,12.6458,10.646,12.5975Q10.6364,12.5492,10.6364,12.5Q10.6364,12.0749,10.2702,11.7625Q9.84522,11.4,9.16667,11.4Q9.11742,11.4,9.06912,11.3904Q9.02082,11.3808,8.97532,11.3619Q8.92983,11.3431,8.88888,11.3157Q8.84793,11.2884,8.81311,11.2536Q8.77829,11.2187,8.75093,11.1778Q8.72357,11.1368,8.70473,11.0913Q8.68588,11.0458,8.67627,10.9975Q8.66667,10.9492,8.66667,10.9Q8.66667,10.8508,8.67627,10.8025Q8.68588,10.7542,8.70473,10.7087Q8.72357,10.6632,8.75093,10.6222Q8.77829,10.5813,8.81311,10.5464Q8.84793,10.5116,8.88888,10.48427Q8.92983,10.45691,8.97532,10.43806Q9.02082,10.41921,9.06912,10.40961Q9.11742,10.4,9.16667,10.4ZM9.66667,4.5L9.66667,16.5Q9.66667,16.5492,9.65706,16.5975Q9.64745,16.6458,9.62861,16.6913Q9.60976,16.7368,9.5824,16.7778Q9.55504,16.8187,9.52022,16.8536Q9.4854,16.8884,9.44445,16.9157Q9.40351,16.9431,9.35801,16.9619Q9.31251,16.9808,9.26421,16.9904Q9.21591,17,9.16667,17L6.80303,17Q6.75379,17,6.70548,16.9904Q6.65719,16.9808,6.61169,16.9619Q6.56619,16.9431,6.52524,16.9157Q6.4843,16.8884,6.44948,16.8536Q6.41465,16.8187,6.3873,16.7778Q6.35994,16.7368,6.34109,16.6913Q6.32225,16.6458,6.31264,16.5975Q6.30303,16.5492,6.30303,16.5Q6.30303,16.0749,5.93687,15.7625Q5.51188,15.4,4.83333,15.4Q4.154780000000001,15.4,3.7298,15.7625Q3.36364,16.0749,3.36364,16.5Q3.36364,16.5492,3.35403,16.5975Q3.34442,16.6458,3.32558,16.6913Q3.30673,16.7368,3.27937,16.7778Q3.25201,16.8187,3.21719,16.8536Q3.18237,16.8884,3.14142,16.9157Q3.10048,16.9431,3.05498,16.9619Q3.00948,16.9808,2.96118,16.9904Q2.91288,17,2.86364,17L0.5,17Q0.4507543,17,0.4024549,16.9904Q0.354155,16.9808,0.308658,16.9619Q0.263161,16.9431,0.222215,16.9157Q0.181269,16.8884,0.146447,16.8536Q0.11162499999999997,16.8187,0.08426499999999998,16.7778Q0.05690600000000001,16.7368,0.03805999999999998,16.6913Q0.019214999999999982,16.6458,0.009606999999999977,16.5975Q0,16.5492,0,16.5L0,4.5Q0,4.45075,0.009606999999999977,4.40245Q0.019214999999999982,4.354150000000001,0.03805999999999998,4.30866Q0.05690600000000001,4.26316,0.08426499999999998,4.2222100000000005Q0.11162499999999997,4.18127,0.146447,4.14645Q0.181269,4.11162,0.222215,4.0842600000000004Q0.263161,4.05691,0.308658,4.03806Q0.354155,4.01921,0.4024549,4.00961Q0.4507543,4,0.5,4L2.86364,4Q2.91288,4,2.96118,4.00961Q3.00948,4.01921,3.05498,4.03806Q3.10048,4.05691,3.14142,4.0842600000000004Q3.18237,4.11162,3.21719,4.14645Q3.25201,4.18127,3.27937,4.2222100000000005Q3.30673,4.26316,3.32558,4.30866Q3.34442,4.354150000000001,3.35403,4.40245Q3.36364,4.45075,3.36364,4.5Q3.36364,4.90089,3.73356,5.22284Q4.16691,5.6,4.83333,5.6Q5.49976,5.6,5.93311,5.22284Q6.30303,4.90089,6.30303,4.5Q6.30303,4.45075,6.31264,4.40245Q6.32225,4.354150000000001,6.34109,4.30866Q6.35994,4.26316,6.3873,4.2222100000000005Q6.41465,4.18127,6.44948,4.14645Q6.4843,4.11162,6.52524,4.0842600000000004Q6.56619,4.05691,6.61169,4.03806Q6.65719,4.01921,6.70548,4.00961Q6.75379,4,6.80303,4L9.16667,4Q9.21591,4,9.26421,4.00961Q9.31251,4.01921,9.35801,4.03806Q9.4035,4.05691,9.44445,4.0842600000000004Q9.4854,4.11162,9.52022,4.14645Q9.55504,4.18127,9.5824,4.2222100000000005Q9.60976,4.26316,9.6286,4.30866Q9.64745,4.354150000000001,9.65706,4.40245Q9.66667,4.45075,9.66667,4.5ZM8.66667,4.5L9.16667,4.5L9.16667,5L6.80303,5L6.80303,4.5L7.30303,4.5Q7.30303,5.35626,6.58962,5.97716Q5.87398,6.6,4.83333,6.6Q3.79269,6.6,3.07705,5.97716Q2.36364,5.35626,2.36364,4.5L2.86364,4.5L2.86364,5L0.5,5L0.5,4.5L1,4.5L1,16.5L0.5,16.5L0.5,16L2.86364,16L2.86364,16.5L2.36364,16.5Q2.36364,15.6135,3.08081,15.0017Q3.7862,14.4,4.83333,14.4Q5.88047,14.4,6.58586,15.0017Q7.30303,15.6135,7.30303,16.5L6.80303,16.5L6.80303,16L9.16667,16L9.16667,16.5L8.66667,16.5L8.66667,4.5ZM9.66667,10.9Q9.66667,10.9492,9.65706,10.9975Q9.64745,11.0458,9.62861,11.0913Q9.60976,11.1368,9.5824,11.1778Q9.55504,11.2187,9.52022,11.2536Q9.4854,11.2884,9.44445,11.3157Q9.40351,11.3431,9.35801,11.3619Q9.31251,11.3808,9.26421,11.3904Q9.21591,11.4,9.16667,11.4Q9.11742,11.4,9.06912,11.3904Q9.02082,11.3808,8.97532,11.3619Q8.92983,11.3431,8.88888,11.3157Q8.84793,11.2884,8.81311,11.2536Q8.77829,11.2187,8.75093,11.1778Q8.72357,11.1368,8.70473,11.0913Q8.68588,11.0458,8.67627,10.9975Q8.66667,10.9492,8.66667,10.9Q8.66667,10.8508,8.67627,10.8025Q8.68588,10.7542,8.70473,10.7087Q8.72357,10.6632,8.75093,10.6222Q8.77829,10.5813,8.81311,10.5464Q8.84793,10.5116,8.88888,10.48427Q8.92983,10.45691,8.97532,10.43806Q9.02082,10.41921,9.06912,10.40961Q9.11742,10.4,9.16667,10.4Q9.21591,10.4,9.26421,10.40961Q9.31251,10.41921,9.35801,10.43806Q9.4035,10.45691,9.44445,10.48427Q9.4854,10.5116,9.52022,10.5464Q9.55504,10.5813,9.5824,10.6222Q9.60976,10.6632,9.6286,10.7087Q9.64745,10.7542,9.65706,10.8025Q9.66667,10.8508,9.66667,10.9Z" fill="#6B7280" fill-opacity="1"/></svg>