<svg xmlns="http://www.w3.org/2000/svg" xmlns:xlink="http://www.w3.org/1999/xlink" fill="none" version="1.1" width="14" height="14" viewBox="0 0 14 14"><path d="M8.95,6.85L5.05,6.85Q5.00076,6.85,4.95246,6.84039Q4.90416,6.83078,4.85866,6.81194Q4.81317,6.79309,4.77222,6.76573Q4.73127,6.73837,4.69645,6.70355Q4.66163,6.66873,4.63427,6.62778Q4.60691,6.58684,4.58806,6.54134Q4.56922,6.49584,4.55961,6.44754Q4.55,6.39925,4.55,6.35Q4.55,6.30075,4.55961,6.25245Q4.56922,6.20415,4.58806,6.15866Q4.60691,6.11316,4.63427,6.07221Q4.66163,6.03127,4.69645,5.99645Q4.73127,5.96162,4.77222,5.93426Q4.81317,5.90691,4.85866,5.88806Q4.90416,5.86921,4.95246,5.85961Q5.00076,5.85,5.05,5.85L8.95,5.85Q8.99925,5.85,9.04755,5.85961Q9.09585,5.86921,9.14135,5.88806Q9.18684,5.90691,9.22779,5.93426Q9.26873,5.96162,9.30356,5.99645Q9.33838,6.03127,9.36574,6.07221Q9.3931,6.11316,9.41194,6.15866Q9.43079,6.20415,9.4404,6.25245Q9.45,6.30075,9.45,6.35Q9.45,6.39925,9.4404,6.44754Q9.43079,6.49584,9.41194,6.54134Q9.3931,6.58684,9.36574,6.62778Q9.33838,6.66873,9.30356,6.70355Q9.26873,6.73837,9.22779,6.76573Q9.18684,6.79309,9.14135,6.81194Q9.09585,6.83078,9.04755,6.84039Q8.99925,6.85,8.95,6.85ZM6.5027,10.25L6.5027,6.35Q6.5027,6.30075,6.51231,6.25245Q6.52192,6.20415,6.54076,6.15866Q6.55961,6.11316,6.58697,6.07221Q6.61433,6.03127,6.64915,5.99645Q6.68397,5.96162,6.72492,5.93426Q6.76586,5.90691,6.81136,5.88806Q6.85686,5.86921,6.90516,5.85961Q6.95346,5.85,7.0027,5.85Q7.05195,5.85,7.10025,5.85961Q7.14855,5.86921,7.19404,5.88806Q7.23954,5.90691,7.28049,5.93426Q7.32143,5.96162,7.35626,5.99645Q7.39108,6.03127,7.41844,6.07221Q7.4458,6.11316,7.46464,6.15866Q7.48349,6.20415,7.49309,6.25245Q7.5027,6.30075,7.5027,6.35L7.5027,10.25Q7.5027,10.29925,7.49309,10.34754Q7.48349,10.39584,7.46464,10.44134Q7.4458,10.48684,7.41844,10.5278Q7.39108,10.5687,7.35626,10.6036Q7.32143,10.6384,7.28049,10.6657Q7.23954,10.6931,7.19404,10.7119Q7.14855,10.7308,7.10025,10.7404Q7.05195,10.75,7.0027,10.75Q6.95346,10.75,6.90516,10.7404Q6.85686,10.7308,6.81136,10.7119Q6.76586,10.6931,6.72492,10.6657Q6.68397,10.6384,6.64915,10.6036Q6.61433,10.5687,6.58697,10.5278Q6.55961,10.48684,6.54076,10.44134Q6.52192,10.39584,6.51231,10.34754Q6.5027,10.29925,6.5027,10.25ZM8.95,8.8L5.05,8.8Q5.00076,8.8,4.95246,8.79039Q4.90416,8.78078,4.85866,8.76194Q4.81317,8.74309,4.77222,8.71573Q4.73127,8.68837,4.69645,8.65355Q4.66163,8.61873,4.63427,8.57778Q4.60691,8.53684,4.58806,8.491340000000001Q4.56922,8.44584,4.55961,8.39754Q4.55,8.34925,4.55,8.3Q4.55,8.25075,4.55961,8.202449999999999Q4.56922,8.15415,4.58806,8.10866Q4.60691,8.06316,4.63427,8.022210000000001Q4.66163,7.98127,4.69645,7.94645Q4.73127,7.91162,4.77222,7.88426Q4.81317,7.8569,4.85866,7.83806Q4.90416,7.81921,4.95246,7.80961Q5.00076,7.8,5.05,7.8L8.95,7.8Q8.99925,7.8,9.04755,7.80961Q9.09585,7.81921,9.14135,7.83806Q9.18684,7.8569,9.22779,7.88426Q9.26873,7.91162,9.30356,7.94645Q9.33838,7.98127,9.36574,8.022210000000001Q9.3931,8.06316,9.41194,8.10866Q9.43079,8.15415,9.4404,8.202449999999999Q9.45,8.25075,9.45,8.3Q9.45,8.34925,9.4404,8.39754Q9.43079,8.44584,9.41194,8.491340000000001Q9.3931,8.53684,9.36574,8.57778Q9.33838,8.61873,9.30356,8.65355Q9.26873,8.68837,9.22779,8.71573Q9.18684,8.74309,9.14135,8.76194Q9.09585,8.78078,9.04755,8.79039Q8.99925,8.8,8.95,8.8ZM5.40356,3.72145L7.35356,5.67145L7,6.025L6.64645,5.67145L8.59645,3.72145Q8.63127,3.68662,8.67222,3.65927Q8.71317,3.63191,8.75866,3.61306Q8.80416,3.59421,8.85246,3.58461Q8.90076,3.575,8.95,3.575Q8.99925,3.575,9.04755,3.58461Q9.09585,3.59421,9.14135,3.61306Q9.18684,3.63191,9.22779,3.65927Q9.26873,3.68662,9.30356,3.72145Q9.33838,3.75627,9.36574,3.79721Q9.3931,3.83816,9.41194,3.88366Q9.43079,3.92915,9.4404,3.97745Q9.45,4.02575,9.45,4.075Q9.45,4.12424,9.4404,4.17254Q9.43079,4.22084,9.41194,4.26634Q9.3931,4.31184,9.36574,4.35278Q9.33838,4.39373,9.30356,4.4285499999999995L7.35356,6.37855Q7.31874,6.41337,7.27779,6.44073Q7.23684,6.46809,7.19135,6.48694Q7.14585,6.50578,7.09755,6.51539Q7.04925,6.525,7,6.525Q6.95076,6.525,6.90246,6.51539Q6.85416,6.50578,6.80866,6.48694Q6.76317,6.46809,6.72222,6.44073Q6.68127,6.41337,6.64645,6.37855L4.69645,4.4285499999999995Q4.66163,4.39373,4.63427,4.35278Q4.60691,4.31184,4.58807,4.26634Q4.56922,4.22084,4.55961,4.17254Q4.55,4.12424,4.55,4.075Q4.55,4.02575,4.55961,3.97745Q4.56922,3.92915,4.58806,3.88366Q4.60691,3.83816,4.63427,3.79721Q4.66163,3.75627,4.69645,3.72145Q4.73127,3.68662,4.77222,3.65927Q4.81317,3.63191,4.85866,3.61306Q4.90416,3.59421,4.95246,3.58461Q5.00076,3.575,5.05,3.575Q5.09925,3.575,5.14755,3.58461Q5.19585,3.59421,5.24135,3.61306Q5.28684,3.63191,5.32779,3.65927Q5.36874,3.68662,5.40356,3.72145ZM1,7Q1,9.48528,2.75736,11.2426Q4.51472,13,7,13Q9.48529,13,11.2426,11.2426Q13,9.48528,13,7Q13,4.51472,11.2426,2.75736Q9.48529,1,7,1Q4.51472,1,2.75736,2.75736Q0.9999990000000001,4.51472,1,7L1,7ZM0,7Q0,4.1005,2.05025,2.05025Q4.1005,0,7,0Q9.8995,0,11.9497,2.05025Q14,4.10051,14,7Q14,9.89949,11.9497,11.9497Q9.8995,14,7,14Q4.1005,14,2.05025,11.9497Q0,9.89949,0,7L0,7ZM9.45,6.35Q9.45,6.39925,9.4404,6.44754Q9.43079,6.49584,9.41194,6.54134Q9.3931,6.58684,9.36574,6.62778Q9.33838,6.66873,9.30356,6.70355Q9.26873,6.73837,9.22779,6.76573Q9.18684,6.79309,9.14135,6.81194Q9.09585,6.83078,9.04755,6.84039Q8.99925,6.85,8.95,6.85Q8.90076,6.85,8.85246,6.84039Q8.80416,6.83078,8.75866,6.81194Q8.71317,6.79309,8.67222,6.76573Q8.63127,6.73837,8.59645,6.70355Q8.56163,6.66873,8.53427,6.62778Q8.50691,6.58684,8.48806,6.54134Q8.46922,6.49584,8.45961,6.44754Q8.45,6.39925,8.45,6.35Q8.45,6.30075,8.45961,6.25245Q8.46922,6.20415,8.48806,6.15866Q8.50691,6.11316,8.53427,6.07221Q8.56163,6.03127,8.59645,5.99645Q8.63127,5.96162,8.67222,5.93426Q8.71317,5.90691,8.75866,5.88806Q8.80416,5.86921,8.85246,5.85961Q8.90076,5.85,8.95,5.85Q8.99925,5.85,9.04755,5.85961Q9.09585,5.86921,9.14135,5.88806Q9.18684,5.90691,9.22779,5.93426Q9.26873,5.96162,9.30356,5.99645Q9.33838,6.03127,9.36574,6.07221Q9.3931,6.11316,9.41194,6.15866Q9.43079,6.20415,9.4404,6.25245Q9.45,6.30075,9.45,6.35ZM5.55,6.35Q5.55,6.39925,5.5404,6.44754Q5.53079,6.49584,5.51194,6.54134Q5.4931,6.58684,5.46574,6.62778Q5.43838,6.66873,5.40356,6.70355Q5.36874,6.73837,5.32779,6.76573Q5.28684,6.79309,5.24135,6.81194Q5.19585,6.83078,5.14755,6.84039Q5.09925,6.85,5.05,6.85Q5.00076,6.85,4.95246,6.84039Q4.90416,6.83078,4.85866,6.81194Q4.81317,6.79309,4.77222,6.76573Q4.73127,6.73837,4.69645,6.70355Q4.66163,6.66873,4.63427,6.62778Q4.60691,6.58684,4.58806,6.54134Q4.56922,6.49584,4.55961,6.44754Q4.55,6.39925,4.55,6.35Q4.55,6.30075,4.55961,6.25245Q4.56922,6.20415,4.58806,6.15866Q4.60691,6.11316,4.63427,6.07221Q4.66163,6.03127,4.69645,5.99645Q4.73127,5.96162,4.77222,5.93426Q4.81317,5.90691,4.85866,5.88806Q4.90416,5.86921,4.95246,5.85961Q5.00076,5.85,5.05,5.85Q5.09925,5.85,5.14755,5.85961Q5.19585,5.86921,5.24135,5.88806Q5.28684,5.90691,5.32779,5.93426Q5.36874,5.96162,5.40356,5.99645Q5.43838,6.03127,5.46574,6.07221Q5.4931,6.11316,5.51194,6.15866Q5.53079,6.20415,5.5404,6.25245Q5.55,6.30075,5.55,6.35ZM7.5027,10.25Q7.5027,10.29925,7.49309,10.34754Q7.48349,10.39584,7.46464,10.44134Q7.4458,10.48684,7.41844,10.5278Q7.39108,10.5687,7.35626,10.6036Q7.32143,10.6384,7.28049,10.6657Q7.23954,10.6931,7.19404,10.7119Q7.14855,10.7308,7.10025,10.7404Q7.05195,10.75,7.0027,10.75Q6.95346,10.75,6.90516,10.7404Q6.85686,10.7308,6.81136,10.7119Q6.76586,10.6931,6.72492,10.6657Q6.68397,10.6384,6.64915,10.6036Q6.61433,10.5687,6.58697,10.5278Q6.55961,10.48684,6.54076,10.44134Q6.52192,10.39584,6.51231,10.34754Q6.5027,10.29925,6.5027,10.25Q6.5027,10.20075,6.51231,10.15245Q6.52192,10.10415,6.54076,10.05866Q6.55961,10.01316,6.58697,9.97221Q6.61433,9.93127,6.64915,9.89645Q6.68397,9.86162,6.72492,9.83426Q6.76586,9.8069,6.81136,9.78806Q6.85686,9.76921,6.90516,9.75961Q6.95346,9.75,7.0027,9.75Q7.05195,9.75,7.10025,9.75961Q7.14855,9.76921,7.19404,9.78806Q7.23954,9.8069,7.28049,9.83426Q7.32143,9.86162,7.35626,9.89645Q7.39108,9.93127,7.41844,9.97221Q7.4458,10.01316,7.46464,10.05866Q7.48349,10.10415,7.49309,10.15245Q7.5027,10.20075,7.5027,10.25ZM9.45,8.3Q9.45,8.34924,9.4404,8.39754Q9.43079,8.44584,9.41194,8.491340000000001Q9.3931,8.53684,9.36574,8.57778Q9.33838,8.61873,9.30356,8.65355Q9.26873,8.68837,9.22779,8.71573Q9.18684,8.74309,9.14135,8.76194Q9.09585,8.78078,9.04755,8.79039Q8.99925,8.8,8.95,8.8Q8.90076,8.8,8.85246,8.79039Q8.80416,8.78078,8.75866,8.76194Q8.71317,8.74309,8.67222,8.71573Q8.63127,8.68837,8.59645,8.65355Q8.56163,8.61873,8.53427,8.57778Q8.50691,8.53684,8.48806,8.491340000000001Q8.46922,8.44584,8.45961,8.39754Q8.45,8.34924,8.45,8.3Q8.45,8.25075,8.45961,8.202449999999999Q8.46922,8.15415,8.48806,8.10866Q8.50691,8.06316,8.53427,8.022210000000001Q8.56163,7.98127,8.59645,7.94644Q8.63127,7.91162,8.67222,7.88426Q8.71317,7.8569,8.75866,7.83806Q8.80416,7.81921,8.85246,7.80961Q8.90076,7.8,8.95,7.8Q8.99925,7.8,9.04755,7.80961Q9.09585,7.81921,9.14135,7.83806Q9.18684,7.8569,9.22779,7.88426Q9.26873,7.91162,9.30356,7.94645Q9.33838,7.98127,9.36574,8.022210000000001Q9.3931,8.06316,9.41194,8.10866Q9.43079,8.15415,9.4404,8.202449999999999Q9.45,8.25075,9.45,8.3ZM5.55,8.3Q5.55,8.34924,5.5404,8.39754Q5.53079,8.44584,5.51194,8.491340000000001Q5.4931,8.53684,5.46574,8.57778Q5.43838,8.61873,5.40356,8.65355Q5.36874,8.68837,5.32779,8.71573Q5.28684,8.74309,5.24135,8.76194Q5.19585,8.78078,5.14755,8.79039Q5.09925,8.8,5.05,8.8Q5.00076,8.8,4.95246,8.79039Q4.90416,8.78078,4.85866,8.76194Q4.81317,8.74309,4.77222,8.71573Q4.73127,8.68837,4.69645,8.65355Q4.66163,8.61873,4.63427,8.57778Q4.60691,8.53684,4.58806,8.491340000000001Q4.56922,8.44584,4.55961,8.39754Q4.55,8.34924,4.55,8.3Q4.55,8.25075,4.55961,8.202449999999999Q4.56922,8.15415,4.58806,8.10866Q4.60691,8.06316,4.63427,8.022210000000001Q4.66163,7.98127,4.69645,7.94644Q4.73127,7.91162,4.77222,7.88426Q4.81317,7.8569,4.85866,7.83806Q4.90416,7.81921,4.95246,7.80961Q5.00076,7.8,5.05,7.8Q5.09925,7.8,5.14755,7.80961Q5.19585,7.81921,5.24135,7.83806Q5.28684,7.8569,5.32779,7.88426Q5.36874,7.91162,5.40356,7.94645Q5.43838,7.98127,5.46574,8.022210000000001Q5.4931,8.06316,5.51194,8.10866Q5.53079,8.15415,5.5404,8.202449999999999Q5.55,8.25075,5.55,8.3ZM5.55,4.075Q5.55,4.12425,5.5404,4.17254Q5.53079,4.22084,5.51194,4.26634Q5.4931,4.31184,5.46574,4.35278Q5.43838,4.39373,5.40356,4.4285499999999995Q5.36874,4.463369999999999,5.32779,4.49073Q5.28684,4.51809,5.24135,4.53694Q5.19585,4.55578,5.14755,4.56539Q5.09925,4.575,5.05,4.575Q5.00076,4.575,4.95246,4.56539Q4.90416,4.55578,4.85866,4.53694Q4.81317,4.51809,4.77222,4.49073Q4.73127,4.463369999999999,4.69645,4.4285499999999995Q4.66163,4.39373,4.63427,4.35278Q4.60691,4.31184,4.58806,4.26634Q4.56922,4.22084,4.55961,4.17254Q4.55,4.12425,4.55,4.075Q4.55,4.02575,4.55961,3.97745Q4.56922,3.92915,4.58806,3.88366Q4.60691,3.83816,4.63427,3.79721Q4.66163,3.75627,4.69645,3.72145Q4.73127,3.68662,4.77222,3.65926Q4.81317,3.63191,4.85866,3.61306Q4.90416,3.59421,4.95246,3.58461Q5.00076,3.575,5.05,3.575Q5.09925,3.575,5.14755,3.58461Q5.19585,3.59421,5.24135,3.61306Q5.28684,3.63191,5.32779,3.65926Q5.36874,3.68662,5.40356,3.72145Q5.43838,3.75627,5.46574,3.79721Q5.4931,3.83816,5.51194,3.88366Q5.53079,3.92915,5.5404,3.97745Q5.55,4.02575,5.55,4.075ZM7.5027,6.35Q7.5027,6.39925,7.49309,6.44754Q7.48349,6.49584,7.46464,6.54134Q7.4458,6.58684,7.41844,6.62778Q7.39108,6.66873,7.35626,6.70355Q7.32143,6.73837,7.28049,6.76573Q7.23954,6.79309,7.19404,6.81194Q7.14855,6.83078,7.10025,6.84039Q7.05195,6.85,7.0027,6.85Q6.95346,6.85,6.90516,6.84039Q6.85686,6.83078,6.81136,6.81194Q6.76586,6.79309,6.72492,6.76573Q6.68397,6.73837,6.64915,6.70355Q6.61433,6.66873,6.58697,6.62778Q6.55961,6.58684,6.54076,6.54134Q6.52192,6.49584,6.51231,6.44754Q6.5027,6.39925,6.5027,6.35Q6.5027,6.30075,6.51231,6.25245Q6.52192,6.20415,6.54076,6.15866Q6.55961,6.11316,6.58697,6.07221Q6.61433,6.03127,6.64915,5.99645Q6.68397,5.96162,6.72492,5.93426Q6.76586,5.90691,6.81136,5.88806Q6.85686,5.86921,6.90516,5.85961Q6.95346,5.85,7.0027,5.85Q7.05195,5.85,7.10025,5.85961Q7.14855,5.86921,7.19404,5.88806Q7.23954,5.90691,7.28049,5.93426Q7.32143,5.96162,7.35626,5.99645Q7.39108,6.03127,7.41844,6.07221Q7.4458,6.11316,7.46464,6.15866Q7.48349,6.20415,7.49309,6.25245Q7.5027,6.30075,7.5027,6.35ZM9.45,4.075Q9.45,4.12425,9.4404,4.17254Q9.43079,4.22084,9.41194,4.26634Q9.3931,4.31184,9.36574,4.35278Q9.33838,4.39373,9.30356,4.4285499999999995Q9.26873,4.463369999999999,9.22779,4.49073Q9.18684,4.51809,9.14135,4.53694Q9.09585,4.55578,9.04755,4.56539Q8.99925,4.575,8.95,4.575Q8.90076,4.575,8.85246,4.56539Q8.80416,4.55578,8.75866,4.53694Q8.71317,4.51809,8.67222,4.49073Q8.63127,4.463369999999999,8.59645,4.4285499999999995Q8.56163,4.39373,8.53427,4.35278Q8.50691,4.31184,8.48806,4.26634Q8.46922,4.22084,8.45961,4.17254Q8.45,4.12425,8.45,4.075Q8.45,4.02575,8.45961,3.97745Q8.46922,3.92915,8.48806,3.88366Q8.50691,3.83816,8.53427,3.79721Q8.56163,3.75627,8.59645,3.72145Q8.63127,3.68662,8.67222,3.65926Q8.71317,3.63191,8.75866,3.61306Q8.80416,3.59421,8.85246,3.58461Q8.90076,3.575,8.95,3.575Q8.99925,3.575,9.04755,3.58461Q9.09585,3.59421,9.14135,3.61306Q9.18684,3.63191,9.22779,3.65926Q9.26873,3.68662,9.30356,3.72145Q9.33838,3.75627,9.36574,3.79721Q9.3931,3.83816,9.41194,3.88366Q9.43079,3.92915,9.4404,3.97745Q9.45,4.02575,9.45,4.075Z" fill="#6B7280" fill-opacity="1"/></svg>