<svg xmlns="http://www.w3.org/2000/svg" xmlns:xlink="http://www.w3.org/1999/xlink" fill="none" version="1.1" width="14" height="14" viewBox="0 0 14 14"><path d="M11.0436,11.6851Q10.9704,10.6094,10.18092,9.86882Q9.38793,9.125,8.3,9.125L5.7,9.125Q4.61054,9.125,3.81714,9.87066Q3.02714,10.6131,2.95607,11.6908Q2.95283,11.7399,2.94006,11.7875Q2.9273,11.8351,2.9055,11.8792Q2.8837,11.9234,2.8537,11.9624Q2.82371,12.0015,2.78667,12.034Q2.74963,12.0664,2.70697,12.091Q2.66432,12.1156,2.61768,12.1314Q2.57104,12.1472,2.52221,12.1536Q2.4733799999999997,12.1601,2.42425,12.1568Q2.3751100000000003,12.1536,2.32754,12.1408Q2.27998,12.128,2.23582,12.1062Q2.1916700000000002,12.0844,2.15261,12.0545Q2.11355,12.0245,2.0811,11.9874Q2.04864,11.9504,2.0240400000000003,11.9077Q1.99943,11.8651,1.98362,11.8184Q1.96781,11.7718,1.9614,11.723Q1.95499,11.6741,1.95823,11.625Q2.05524,10.15422,3.1323,9.14197Q4.21438,8.125,5.7,8.125L8.3,8.125Q9.78353,8.125,10.8651,9.13946Q11.9414,10.14909,12.0413,11.6172Q12.0446,11.6664,12.0383,11.7152Q12.032,11.7641,12.0163,11.8107Q12.0006,11.8574,11.9761,11.9001Q11.9515,11.9428,11.9192,11.9799Q11.8868,12.017,11.8478,12.0471Q11.8088,12.0772,11.7647,12.0991Q11.7206,12.121,11.673,12.1338Q11.6255,12.1467,11.5764,12.15Q11.5272,12.1534,11.4784,12.1471Q11.4295,12.1407,11.3829,12.125Q11.3362,12.1093,11.2935,12.0848Q11.2508,12.0603,11.2137,12.0279Q11.1766,11.9955,11.1465,11.9565Q11.1164,11.9175,11.0945,11.8734Q11.0726,11.8293,11.0598,11.7818Q11.0469,11.7342,11.0436,11.6851ZM1,7Q1,9.48529,2.75736,11.2426Q4.51472,13,7,13Q9.48528,13,11.2426,11.2426Q13,9.48529,13,7Q13,4.51471,11.2426,2.75736Q9.48528,0.9999990000000001,7,0.9999990000000001Q4.51472,1,2.75736,2.75736Q1,4.51472,1,7L1,7ZM0,7Q0,4.1005,2.05025,2.05025Q4.1005,0,7,-0.0000010000000000287557Q9.89949,0,11.9497,2.05025Q14,4.1005,14,7Q14,9.89951,11.9497,11.9497Q9.89949,14,7,14Q4.10051,14,2.05025,11.9497Q0,9.8995,0,7L0,7ZM5.875,5.05Q5.875,5.51599,6.20451,5.84549Q6.53401,6.175,7,6.175Q7.46599,6.175,7.79549,5.84549Q8.125,5.51599,8.125,5.05Q8.125,4.58401,7.79549,4.25451Q7.46598,3.925,7,3.925Q6.53401,3.925,6.20451,4.25451Q5.875,4.58401,5.875,5.05ZM4.875,5.05Q4.875,4.1698,5.4974,3.5474Q6.1198,2.925,7,2.925Q7.8802,2.925,8.5026,3.5474Q9.125,4.1698,9.125,5.05Q9.125,5.9302,8.5026,6.5526Q7.8802,7.175,7,7.175Q6.1198,7.175,5.4974,6.5526Q4.875,5.9302,4.875,5.05ZM12.0424,11.6512Q12.0424,11.7004,12.0328,11.7487Q12.0232,11.797,12.0044,11.8425Q11.9855,11.888,11.9582,11.929Q11.9308,11.9699,11.896,12.0047Q11.8612,12.0395,11.8202,12.0669Q11.7793,12.0943,11.7338,12.1131Q11.6883,12.132,11.64,12.1416Q11.5917,12.1512,11.5424,12.1512Q11.4932,12.1512,11.4449,12.1416Q11.3966,12.132,11.3511,12.1131Q11.3056,12.0943,11.2646,12.0669Q11.2237,12.0395,11.1889,12.0047Q11.154,11.9699,11.1267,11.929Q11.0993,11.888,11.0805,11.8425Q11.0616,11.797,11.052,11.7487Q11.0424,11.7004,11.0424,11.6512Q11.0424,11.6019,11.052,11.5536Q11.0616,11.5053,11.0805,11.4598Q11.0993,11.4143,11.1267,11.3734Q11.154,11.3324,11.1889,11.2976Q11.2237,11.2628,11.2646,11.2354Q11.3056,11.2081,11.3511,11.1892Q11.3966,11.1704,11.4449,11.1608Q11.4932,11.1512,11.5424,11.1512Q11.5917,11.1512,11.64,11.1608Q11.6883,11.1704,11.7338,11.1892Q11.7793,11.2081,11.8202,11.2354Q11.8612,11.2628,11.896,11.2976Q11.9308,11.3324,11.9582,11.3734Q11.9855,11.4143,12.0044,11.4598Q12.0232,11.5053,12.0328,11.5536Q12.0424,11.6019,12.0424,11.6512ZM2.95715,11.6579Q2.95715,11.7071,2.94754,11.7554Q2.93794,11.8037,2.91909,11.8492Q2.90025,11.8947,2.87289,11.9357Q2.84553,11.9766,2.8107,12.0115Q2.77588,12.0463,2.73494,12.0736Q2.69399,12.101,2.64849,12.1198Q2.603,12.1387,2.5547,12.1483Q2.5064,12.1579,2.45715,12.1579Q2.40791,12.1579,2.35961,12.1483Q2.3113099999999998,12.1387,2.26581,12.1198Q2.22031,12.101,2.17937,12.0736Q2.13842,12.0463,2.1036,12.0115Q2.0687800000000003,11.9766,2.04142,11.9357Q2.0140599999999997,11.8947,1.99521,11.8492Q1.97637,11.8037,1.96676,11.7554Q1.95715,11.7071,1.95715,11.6579Q1.95715,11.6087,1.96676,11.5604Q1.97637,11.5121,1.99521,11.4666Q2.0140599999999997,11.4211,2.04142,11.3801Q2.0687800000000003,11.3392,2.1036,11.3043Q2.13842,11.2695,2.17937,11.2422Q2.22031,11.2148,2.26581,11.196Q2.3113099999999998,11.1771,2.35961,11.1675Q2.40791,11.1579,2.45715,11.1579Q2.5064,11.1579,2.5547,11.1675Q2.603,11.1771,2.64849,11.196Q2.69399,11.2148,2.73494,11.2422Q2.77588,11.2695,2.8107,11.3043Q2.84553,11.3392,2.87289,11.3801Q2.90025,11.4211,2.91909,11.4666Q2.93794,11.5121,2.94754,11.5604Q2.95715,11.6087,2.95715,11.6579Z" fill="#6B7280" fill-opacity="1"/></svg>