<svg xmlns="http://www.w3.org/2000/svg" xmlns:xlink="http://www.w3.org/1999/xlink" fill="none" version="1.1" width="14" height="17" viewBox="0 0 14 17"><path d="M13.5,17L0.5,17Q0.4507543,17,0.4024549,16.9904Q0.354155,16.9808,0.308658,16.9619Q0.263161,16.9431,0.222215,16.9157Q0.181269,16.8884,0.146447,16.8536Q0.11162499999999997,16.8187,0.08426499999999998,16.7778Q0.05690600000000001,16.7368,0.03805999999999998,16.6913Q0.019214999999999982,16.6458,0.009606999999999977,16.5975Q0,16.5492,0,16.5Q0,16.4508,0.009606999999999977,16.4025Q0.019214999999999982,16.3542,0.03805999999999998,16.3087Q0.05690600000000001,16.263199999999998,0.08426499999999998,16.2222Q0.11162499999999997,16.1813,0.146447,16.1464Q0.181269,16.1116,0.222215,16.0843Q0.263161,16.0569,0.308658,16.0381Q0.354155,16.019199999999998,0.4024549,16.0096Q0.4507543,16,0.5,16L13.5,16Q13.5492,16,13.5975,16.0096Q13.6458,16.019199999999998,13.6913,16.0381Q13.7368,16.0569,13.7778,16.0843Q13.8187,16.1116,13.8536,16.1464Q13.8884,16.1813,13.9157,16.2222Q13.9431,16.263199999999998,13.9619,16.3087Q13.9808,16.3542,13.9904,16.4025Q14,16.4508,14,16.5Q14,16.5492,13.9904,16.5975Q13.9808,16.6458,13.9619,16.6913Q13.9431,16.7368,13.9157,16.7778Q13.8884,16.8187,13.8536,16.8536Q13.8187,16.8884,13.7778,16.9157Q13.7368,16.9431,13.6913,16.9619Q13.6458,16.9808,13.5975,16.9904Q13.5492,17,13.5,17ZM4.96875,12.6L4.5625,12.6Q4.51325,12.6,4.46495,12.5904Q4.41666,12.5808,4.37116,12.5619Q4.32566,12.5431,4.2847100000000005,12.5157Q4.24377,12.4884,4.20895,12.4536Q4.17412,12.4187,4.1467600000000004,12.3778Q4.11941,12.3368,4.10056,12.2913Q4.08171,12.2458,4.07211,12.1975Q4.0625,12.1492,4.0625,12.1Q4.0625,12.0508,4.07211,12.0025Q4.08171,11.9542,4.10056,11.9087Q4.11941,11.8632,4.1467600000000004,11.8222Q4.17412,11.7813,4.20895,11.7464Q4.24377,11.7116,4.2847100000000005,11.6843Q4.32566,11.6569,4.37116,11.6381Q4.41666,11.6192,4.46495,11.6096Q4.51325,11.6,4.5625,11.6L4.96875,11.6Q5.018,11.6,5.06629,11.6096Q5.11459,11.6192,5.16009,11.6381Q5.20559,11.6569,5.24653,11.6843Q5.28748,11.7116,5.3223,11.7464Q5.35713,11.7813,5.38448,11.8222Q5.41184,11.8632,5.43069,11.9087Q5.44953,11.9542,5.45914,12.0025Q5.46875,12.0508,5.46875,12.1Q5.46875,12.1492,5.45914,12.1975Q5.44953,12.2458,5.43069,12.2913Q5.41184,12.3368,5.38448,12.3778Q5.35713,12.4187,5.3223,12.4536Q5.28748,12.4884,5.24653,12.5157Q5.20559,12.5431,5.16009,12.5619Q5.11459,12.5808,5.06629,12.5904Q5.018,12.6,4.96875,12.6ZM9.02717,12.5977L8.73994,12.3149Q8.70485,12.2803,8.67718,12.2396Q8.6495,12.1988,8.63031,12.1535Q8.61111,12.1081,8.60113,12.0599Q8.59115,12.0117,8.59077,11.9625Q8.59039,11.9132,8.59963,11.8648Q8.60886,11.8165,8.62736,11.7708Q8.64585,11.7252,8.6729,11.684Q8.69994,11.6429,8.73449,11.6078Q8.76905,11.5727,8.80978,11.545Q8.85051,11.5173,8.89586,11.4981Q8.94121,11.479,8.98944,11.469Q9.03766,11.459,9.08691,11.4586Q9.13615,11.4582,9.18452,11.4675Q9.23289,11.4767,9.27854,11.4952Q9.32418,11.5137,9.36533,11.5407Q9.40649,11.5678,9.44158,11.6023L9.72881,11.8852Q9.7639,11.9197,9.79157,11.9605Q9.81925,12.0012,9.83844,12.0465Q9.85764,12.0919,9.86762,12.1401Q9.87759,12.1883,9.87797,12.2376Q9.87835,12.2868,9.86912,12.3352Q9.85988,12.3836,9.84139,12.4292Q9.82289,12.4749,9.79585,12.516Q9.76881,12.5572,9.73426,12.5923Q9.6997,12.6273,9.65897,12.655Q9.61823,12.6827,9.57288,12.7019Q9.52753,12.7211,9.47931,12.7311Q9.43109,12.741,9.38184,12.7414Q9.3326,12.7418,9.28423,12.7326Q9.23585,12.7233,9.19021,12.7048Q9.14457,12.6863,9.10342,12.6593Q9.06226,12.6323,9.02717,12.5977ZM5.11643,8.65628L2.4758,11.2563L2.125,10.9L2.625,10.9L2.625,16.5Q2.625,16.5492,2.61539,16.5975Q2.60578,16.6458,2.58694,16.6913Q2.56809,16.7368,2.54073,16.7778Q2.51338,16.8187,2.4785500000000003,16.8536Q2.44373,16.8884,2.40278,16.9157Q2.36184,16.9431,2.3163400000000003,16.9619Q2.2708399999999997,16.9808,2.22254,16.9904Q2.17425,17,2.125,17Q2.07575,17,2.02745,16.9904Q1.97916,16.9808,1.93366,16.9619Q1.88816,16.9431,1.84721,16.9157Q1.80627,16.8884,1.77145,16.8536Q1.73662,16.8187,1.70926,16.7778Q1.68191,16.7368,1.66306,16.6913Q1.64421,16.6458,1.63461,16.5975Q1.625,16.5492,1.625,16.5L1.625,10.9Q1.625,10.7995,1.66381,10.7069Q1.70261,10.6142,1.7742,10.5437L4.414820000000001,7.94372Q4.44991,7.90917,4.491070000000001,7.88212Q4.53223,7.85508,4.57787,7.83659Q4.62351,7.8181,4.67188,7.80887Q4.72026,7.79963,4.7695,7.80001Q4.81874,7.8004,4.86697,7.81038Q4.91519,7.82036,4.96054,7.83956Q5.00589,7.85875,5.04662,7.88643Q5.08736,7.91411,5.12191,7.9492Q5.15646,7.98429,5.1835,8.02545Q5.21054,8.066600000000001,5.22903,8.11224Q5.24753,8.15789,5.25676,8.20626Q5.26599,8.254629999999999,5.26561,8.30388Q5.26523,8.35312,5.25525,8.401340000000001Q5.24526,8.44957,5.22607,8.49492Q5.20687,8.54027,5.17919,8.581Q5.15152,8.62173,5.11643,8.65628ZM7.40625,14.6L7,14.6Q6.95075,14.6,6.90245,14.5904Q6.85415,14.5808,6.80866,14.5619Q6.76316,14.5431,6.72221,14.5157Q6.68127,14.4884,6.64645,14.4536Q6.61162,14.4187,6.58426,14.3778Q6.5569,14.3368,6.53806,14.2913Q6.51921,14.2458,6.50961,14.1975Q6.5,14.1492,6.5,14.1Q6.5,14.0508,6.50961,14.0025Q6.51921,13.9542,6.53806,13.9087Q6.5569,13.8632,6.58426,13.8222Q6.61162,13.7813,6.64645,13.7464Q6.68127,13.7116,6.72221,13.6843Q6.76316,13.6569,6.80866,13.6381Q6.85415,13.6192,6.90245,13.6096Q6.95075,13.6,7,13.6L7.40625,13.6Q7.4555,13.6,7.50379,13.6096Q7.55209,13.6192,7.59759,13.6381Q7.64309,13.6569,7.68403,13.6843Q7.72498,13.7116,7.7598,13.7464Q7.79462,13.7813,7.82198,13.8222Q7.84934,13.8632,7.86819,13.9087Q7.88703,13.9542,7.89664,14.0025Q7.90625,14.0508,7.90625,14.1Q7.90625,14.1492,7.89664,14.1975Q7.88703,14.2458,7.86819,14.2913Q7.84934,14.3368,7.82198,14.3778Q7.79462,14.4187,7.7598,14.4536Q7.72498,14.4884,7.68403,14.5157Q7.64309,14.5431,7.59759,14.5619Q7.55209,14.5808,7.50379,14.5904Q7.4555,14.6,7.40625,14.6ZM13.5,1L0.5,1Q0.4507543,1,0.4024549,0.9903930000000001Q0.354155,0.980785,0.308658,0.96194Q0.263161,0.943094,0.222215,0.915735Q0.181269,0.888375,0.146447,0.853553Q0.11162499999999997,0.818731,0.08426499999999998,0.777785Q0.05690600000000001,0.736839,0.03805999999999998,0.691342Q0.019214999999999982,0.645845,0.009606999999999977,0.5975451Q0,0.5492457,0,0.5Q0,0.4507543,0.009606999999999977,0.4024549Q0.019214999999999982,0.354155,0.03805999999999998,0.308658Q0.05690600000000001,0.263161,0.08426499999999998,0.222215Q0.11162499999999997,0.181269,0.146447,0.146447Q0.181269,0.11162499999999997,0.222215,0.08426499999999998Q0.263161,0.05690600000000001,0.308658,0.03805999999999998Q0.354155,0.019214999999999982,0.4024549,0.009606999999999977Q0.4507543,0,0.5,0L13.5,0Q13.5492,0,13.5975,0.009606999999999977Q13.6458,0.019214999999999982,13.6913,0.03805999999999998Q13.7368,0.05690600000000001,13.7778,0.08426499999999998Q13.8187,0.11162499999999997,13.8536,0.146447Q13.8884,0.181269,13.9157,0.222215Q13.9431,0.263161,13.9619,0.308658Q13.9808,0.354155,13.9904,0.4024549Q14,0.4507543,14,0.5Q14,0.5492457,13.9904,0.5975451Q13.9808,0.645845,13.9619,0.691342Q13.9431,0.736839,13.9157,0.777785Q13.8884,0.818731,13.8536,0.853553Q13.8187,0.888375,13.7778,0.915735Q13.7368,0.943094,13.6913,0.96194Q13.6458,0.980785,13.5975,0.9903930000000001Q13.5492,1,13.5,1ZM5.41219,9.63734L1.75594,5.63734Q1.69277,5.56822,1.65888,5.48093Q1.625,5.39364,1.625,5.3L1.625,0.5Q1.625,0.4507543,1.63461,0.4024549Q1.64421,0.354155,1.66306,0.308658Q1.68191,0.263161,1.70927,0.222215Q1.73662,0.181269,1.77145,0.146447Q1.80627,0.11162499999999997,1.84721,0.08426499999999998Q1.88816,0.05690600000000001,1.93366,0.03805999999999998Q1.97916,0.019214999999999982,2.02745,0.009606999999999977Q2.07575,0,2.125,0Q2.17425,0,2.22254,0.009606999999999977Q2.2708399999999997,0.019214999999999982,2.3163400000000003,0.03805999999999998Q2.36184,0.05690600000000001,2.40278,0.08426499999999998Q2.44373,0.11162499999999997,2.4785500000000003,0.146447Q2.51338,0.181269,2.54073,0.222215Q2.56809,0.263161,2.58694,0.308658Q2.60578,0.354155,2.61539,0.4024549Q2.625,0.4507543,2.625,0.5L2.625,5.3L2.125,5.3L2.49406,4.96266L6.15031,8.96266Q6.18353,8.99901,6.20903,9.04114Q6.23452,9.08327,6.25131,9.12957Q6.26809,9.17587,6.27552,9.22455Q6.28295,9.27323,6.28075,9.32243Q6.27854,9.37162,6.26677,9.41944Q6.25501,9.46726,6.23414,9.51187Q6.21327,9.55647,6.18411,9.59615Q6.15494,9.63583,6.11859,9.66906Q6.08224,9.70228,6.04011,9.72777Q5.99798,9.75327,5.95168,9.77006Q5.90538,9.78684,5.8567,9.79427Q5.80802,9.8017,5.75882,9.7995Q5.70963,9.79729,5.66181,9.78552Q5.61399,9.77376,5.56938,9.75289Q5.52478,9.73202,5.4851,9.70286Q5.44542,9.67369,5.41219,9.63734ZM8.55924,6.93385L12.2155,10.33385Q12.2918,10.4048,12.3334,10.5003Q12.375,10.5958,12.375,10.7L12.375,16.5Q12.375,16.5492,12.3654,16.5975Q12.3558,16.6458,12.3369,16.6913Q12.3181,16.7368,12.2907,16.7778Q12.2634,16.8187,12.2286,16.8536Q12.1937,16.8884,12.1528,16.9157Q12.1118,16.9431,12.0663,16.9619Q12.0208,16.9808,11.9725,16.9904Q11.9242,17,11.875,17Q11.8258,17,11.7775,16.9904Q11.7292,16.9808,11.6837,16.9619Q11.6382,16.9431,11.5972,16.9157Q11.5563,16.8884,11.5214,16.8536Q11.4866,16.8187,11.4593,16.7778Q11.4319,16.7368,11.4131,16.6913Q11.3942,16.6458,11.3846,16.5975Q11.375,16.5492,11.375,16.5L11.375,10.7L11.875,10.7L11.5345,11.0662L7.87826,7.66615Q7.8422,7.63262,7.81337,7.59269Q7.78454,7.55276,7.76406,7.50798Q7.74357,7.4632,7.73222,7.41528Q7.72087,7.36736,7.71908,7.31815Q7.71729,7.26893,7.72514,7.22031Q7.73299,7.1717,7.75017,7.12555Q7.76735,7.0794,7.79321,7.03749Q7.81906,6.99557,7.8526,6.95951Q7.88613,6.92345,7.92606,6.89462Q7.96599,6.86579,8.01077,6.84531Q8.05555,6.82482,8.10347,6.81347Q8.15139,6.80212,8.2006,6.80033Q8.24982,6.79854,8.29843,6.80639Q8.34705,6.81424,8.3932,6.83142Q8.439350000000001,6.8486,8.481259999999999,6.87446Q8.52318,6.90031,8.55924,6.93385ZM8.85906,7.96964L11.4997,4.96964L11.875,5.3L11.375,5.3L11.375,0.5Q11.375,0.4507543,11.3846,0.4024549Q11.3942,0.354155,11.4131,0.308658Q11.4319,0.263161,11.4593,0.222215Q11.4866,0.181269,11.5214,0.146447Q11.5563,0.11162499999999997,11.5972,0.08426499999999998Q11.6382,0.05690600000000001,11.6837,0.03805999999999998Q11.7292,0.019214999999999982,11.7775,0.009606999999999977Q11.8258,0,11.875,0Q11.9242,0,11.9725,0.009606999999999977Q12.0208,0.019214999999999982,12.0663,0.03805999999999998Q12.1118,0.05690600000000001,12.1528,0.08426499999999998Q12.1937,0.11162499999999997,12.2286,0.146447Q12.2634,0.181269,12.2907,0.222215Q12.3181,0.263161,12.3369,0.308658Q12.3558,0.354155,12.3654,0.4024549Q12.375,0.4507543,12.375,0.5L12.375,5.3Q12.375,5.39121,12.3428,5.47655Q12.3106,5.56189,12.2503,5.63036L9.60969,8.63036Q9.57715,8.66732,9.53803,8.69723Q9.49891,8.72714,9.4547,8.74884Q9.41049,8.77054,9.3629,8.7832Q9.31531,8.79586,9.26617,8.79899Q9.21702,8.80212,9.16821,8.7956Q9.11939,8.78908,9.07279,8.77317Q9.02619,8.75726,8.98359,8.73255Q8.94098,8.70785,8.90402,8.67532Q8.86705,8.64278,8.83714,8.60365Q8.80724,8.56453,8.78554,8.52032Q8.76384,8.47612,8.75118,8.42853Q8.73852,8.380939999999999,8.73539,8.33179Q8.73225,8.28264,8.73877,8.233830000000001Q8.74529,8.18502,8.7612,8.13842Q8.77712,8.091809999999999,8.80182,8.04921Q8.82652,8.00661,8.85906,7.96964ZM14,16.5Q14,16.5492,13.9904,16.5975Q13.9808,16.6458,13.9619,16.6913Q13.9431,16.7368,13.9157,16.7778Q13.8884,16.8187,13.8536,16.8536Q13.8187,16.8884,13.7778,16.9157Q13.7368,16.9431,13.6913,16.9619Q13.6458,16.9808,13.5975,16.9904Q13.5492,17,13.5,17Q13.4508,17,13.4025,16.9904Q13.3542,16.9808,13.3087,16.9619Q13.2632,16.9431,13.2222,16.9157Q13.1813,16.8884,13.1464,16.8536Q13.1116,16.8187,13.0843,16.7778Q13.0569,16.7368,13.0381,16.6913Q13.0192,16.6458,13.0096,16.5975Q13,16.5492,13,16.5Q13,16.4508,13.0096,16.4025Q13.0192,16.3542,13.0381,16.3087Q13.0569,16.263199999999998,13.0843,16.2222Q13.1116,16.1813,13.1464,16.1464Q13.1813,16.1116,13.2222,16.0843Q13.2632,16.0569,13.3087,16.0381Q13.3542,16.019199999999998,13.4025,16.0096Q13.4508,16,13.5,16Q13.5492,16,13.5975,16.0096Q13.6458,16.019199999999998,13.6913,16.0381Q13.7368,16.0569,13.7778,16.0843Q13.8187,16.1116,13.8536,16.1464Q13.8884,16.1813,13.9157,16.2222Q13.9431,16.263199999999998,13.9619,16.3087Q13.9808,16.3542,13.9904,16.4025Q14,16.4508,14,16.5ZM1,16.5Q1,16.5492,0.9903930000000001,16.5975Q0.980785,16.6458,0.96194,16.6913Q0.943094,16.7368,0.915735,16.7778Q0.888375,16.8187,0.853553,16.8536Q0.818731,16.8884,0.777785,16.9157Q0.736839,16.9431,0.691342,16.9619Q0.645845,16.9808,0.5975451,16.9904Q0.5492457,17,0.5,17Q0.4507543,17,0.4024549,16.9904Q0.354155,16.9808,0.308658,16.9619Q0.263161,16.9431,0.222215,16.9157Q0.181269,16.8884,0.146447,16.8536Q0.11162499999999997,16.8187,0.08426499999999998,16.7778Q0.05690600000000001,16.7368,0.03805999999999998,16.6913Q0.019214999999999982,16.6458,0.009606999999999977,16.5975Q0,16.5492,0,16.5Q0,16.4508,0.009606999999999977,16.4025Q0.019214999999999982,16.3542,0.03805999999999998,16.3087Q0.05690600000000001,16.263199999999998,0.08426499999999998,16.2222Q0.11162499999999997,16.1813,0.146447,16.1464Q0.181269,16.1116,0.222215,16.0843Q0.263161,16.0569,0.308658,16.0381Q0.354155,16.019199999999998,0.4024549,16.0096Q0.4507543,16,0.5,16Q0.5492457,16,0.5975451,16.0096Q0.645845,16.019199999999998,0.691342,16.0381Q0.736839,16.0569,0.777785,16.0843Q0.818731,16.1116,0.853553,16.1464Q0.888375,16.1813,0.915735,16.2222Q0.943094,16.263199999999998,0.96194,16.3087Q0.980785,16.3542,0.9903930000000001,16.4025Q1,16.4508,1,16.5ZM5.46875,12.1Q5.46875,12.1492,5.45914,12.1975Q5.44953,12.2458,5.43069,12.2913Q5.41184,12.3368,5.38448,12.3778Q5.35713,12.4187,5.3223,12.4536Q5.28748,12.4884,5.24653,12.5157Q5.20559,12.5431,5.16009,12.5619Q5.11459,12.5808,5.06629,12.5904Q5.018,12.6,4.96875,12.6Q4.9195,12.6,4.8712,12.5904Q4.8229,12.5808,4.77741,12.5619Q4.73191,12.5431,4.69096,12.5157Q4.65002,12.4884,4.6152,12.4536Q4.58037,12.4187,4.55301,12.3778Q4.52566,12.3368,4.50681,12.2913Q4.48796,12.2458,4.47836,12.1975Q4.46875,12.1492,4.46875,12.1Q4.46875,12.0508,4.47836,12.0025Q4.48796,11.9542,4.50681,11.9087Q4.52566,11.8632,4.55301,11.8222Q4.58037,11.7813,4.6152,11.7464Q4.65002,11.7116,4.69096,11.6843Q4.73191,11.6569,4.77741,11.6381Q4.8229,11.6192,4.8712,11.6096Q4.9195,11.6,4.96875,11.6Q5.018,11.6,5.06629,11.6096Q5.11459,11.6192,5.16009,11.6381Q5.20559,11.6569,5.24653,11.6843Q5.28748,11.7116,5.3223,11.7464Q5.35713,11.7813,5.38448,11.8222Q5.41184,11.8632,5.43069,11.9087Q5.44953,11.9542,5.45914,12.0025Q5.46875,12.0508,5.46875,12.1ZM5.0625,12.1Q5.0625,12.1492,5.05289,12.1975Q5.04328,12.2458,5.02444,12.2913Q5.00559,12.3368,4.97823,12.3778Q4.95087,12.4187,4.91605,12.4536Q4.88123,12.4884,4.84028,12.5157Q4.79934,12.5431,4.75384,12.5619Q4.70834,12.5808,4.66004,12.5904Q4.61175,12.6,4.5625,12.6Q4.51325,12.6,4.46495,12.5904Q4.41666,12.5808,4.37116,12.5619Q4.32566,12.5431,4.2847100000000005,12.5157Q4.24377,12.4884,4.20895,12.4536Q4.17412,12.4187,4.1467600000000004,12.3778Q4.11941,12.3368,4.10056,12.2913Q4.08171,12.2458,4.07211,12.1975Q4.0625,12.1492,4.0625,12.1Q4.0625,12.0508,4.07211,12.0025Q4.08171,11.9542,4.10056,11.9087Q4.11941,11.8632,4.1467600000000004,11.8222Q4.17412,11.7813,4.20895,11.7464Q4.24377,11.7116,4.2847100000000005,11.6843Q4.32566,11.6569,4.37116,11.6381Q4.41666,11.6192,4.46495,11.6096Q4.51325,11.6,4.5625,11.6Q4.61175,11.6,4.66004,11.6096Q4.70834,11.6192,4.75384,11.6381Q4.79934,11.6569,4.84028,11.6843Q4.88123,11.7116,4.91605,11.7464Q4.95087,11.7813,4.97823,11.8222Q5.00559,11.8632,5.02444,11.9087Q5.04328,11.9542,5.05289,12.0025Q5.0625,12.0508,5.0625,12.1ZM9.87799,12.2414Q9.87799,12.2907,9.86838,12.339Q9.85878,12.3873,9.83993,12.4328Q9.82108,12.4783,9.79372,12.5192Q9.76637,12.5602,9.73154,12.595Q9.69672,12.6298,9.65578,12.6572Q9.61483,12.6845,9.56933,12.7034Q9.52383,12.7222,9.47554,12.7318Q9.42724,12.7414,9.37799,12.7414Q9.32874,12.7414,9.28045,12.7318Q9.23215,12.7222,9.18665,12.7034Q9.14115,12.6845,9.1002,12.6572Q9.05926,12.6298,9.02444,12.595Q8.98961,12.5602,8.96225,12.5192Q8.9349,12.4783,8.91605,12.4328Q8.89721,12.3873,8.8876,12.339Q8.87799,12.2907,8.87799,12.2414Q8.87799,12.1922,8.8876,12.1439Q8.89721,12.0956,8.91605,12.0501Q8.9349,12.0046,8.96225,11.9637Q8.98961,11.9227,9.02444,11.8879Q9.05926,11.8531,9.1002,11.8257Q9.14115,11.7983,9.18665,11.7795Q9.23215,11.7607,9.28045,11.751Q9.32874,11.7414,9.37799,11.7414Q9.42724,11.7414,9.47554,11.751Q9.52383,11.7607,9.56933,11.7795Q9.61483,11.7983,9.65578,11.8257Q9.69672,11.8531,9.73154,11.8879Q9.76637,11.9227,9.79372,11.9637Q9.82108,12.0046,9.83993,12.0501Q9.85878,12.0956,9.86838,12.1439Q9.87799,12.1922,9.87799,12.2414ZM9.59076,11.9586Q9.59076,12.0078,9.58115,12.0561Q9.57154,12.1044,9.5527,12.1499Q9.53385,12.1954,9.50649,12.2364Q9.47913,12.2773,9.44431,12.3122Q9.40949,12.347,9.36854,12.3743Q9.3276,12.4017,9.2821,12.4205Q9.2366,12.4394,9.1883,12.449Q9.14,12.4586,9.09076,12.4586Q9.04151,12.4586,8.99321,12.449Q8.94491,12.4394,8.89942,12.4205Q8.85392,12.4017,8.81297,12.3743Q8.77203,12.347,8.73721,12.3122Q8.70238,12.2773,8.67502,12.2364Q8.64767,12.1954,8.62882,12.1499Q8.60997,12.1044,8.60037,12.0561Q8.59076,12.0078,8.59076,11.9586Q8.59076,11.9094,8.60037,11.8611Q8.60997,11.8128,8.62882,11.7673Q8.64767,11.7218,8.67502,11.6808Q8.70238,11.6399,8.73721,11.605Q8.77203,11.5702,8.81297,11.5429Q8.85392,11.5155,8.89942,11.4967Q8.94491,11.4778,8.99321,11.4682Q9.04151,11.4586,9.09076,11.4586Q9.14,11.4586,9.1883,11.4682Q9.2366,11.4778,9.2821,11.4967Q9.3276,11.5155,9.36854,11.5429Q9.40949,11.5702,9.44431,11.605Q9.47913,11.6399,9.50649,11.6808Q9.53385,11.7218,9.5527,11.7673Q9.57154,11.8128,9.58115,11.8611Q9.59076,11.9094,9.59076,11.9586ZM5.26562,8.3Q5.26562,8.34925,5.25602,8.39754Q5.24641,8.44584,5.22756,8.491340000000001Q5.20872,8.53684,5.18136,8.57778Q5.154,8.61873,5.11918,8.65355Q5.08436,8.68837,5.04341,8.71573Q5.00246,8.74309,4.95697,8.76194Q4.91147,8.78078,4.86317,8.79039Q4.81487,8.8,4.76562,8.8Q4.71638,8.8,4.66808,8.79039Q4.61978,8.78078,4.57428,8.76194Q4.52879,8.74309,4.48784,8.71573Q4.44689,8.68837,4.41207,8.65355Q4.37725,8.61873,4.34989,8.57778Q4.32253,8.53684,4.30368,8.491340000000001Q4.28484,8.44584,4.2752300000000005,8.39754Q4.26562,8.34925,4.26562,8.3Q4.26562,8.25075,4.2752300000000005,8.202449999999999Q4.28484,8.15415,4.30368,8.10866Q4.32253,8.06316,4.34989,8.022210000000001Q4.37725,7.98127,4.41207,7.94645Q4.44689,7.91162,4.48784,7.88426Q4.52879,7.85691,4.57428,7.83806Q4.61978,7.81921,4.66808,7.80961Q4.71638,7.8,4.76562,7.8Q4.81487,7.8,4.86317,7.80961Q4.91147,7.81921,4.95697,7.83806Q5.00246,7.85691,5.04341,7.88427Q5.08436,7.91162,5.11918,7.94645Q5.154,7.98127,5.18136,8.022210000000001Q5.20872,8.06316,5.22756,8.10866Q5.24641,8.15415,5.25602,8.202449999999999Q5.26562,8.25075,5.26562,8.3ZM7.90625,14.1Q7.90625,14.1492,7.89664,14.1975Q7.88703,14.2458,7.86819,14.2913Q7.84934,14.3368,7.82198,14.3778Q7.79462,14.4187,7.7598,14.4536Q7.72498,14.4884,7.68403,14.5157Q7.64309,14.5431,7.59759,14.5619Q7.55209,14.5808,7.50379,14.5904Q7.4555,14.6,7.40625,14.6Q7.357,14.6,7.3087,14.5904Q7.26041,14.5808,7.21491,14.5619Q7.16941,14.5431,7.12846,14.5157Q7.08752,14.4884,7.0527,14.4536Q7.01787,14.4187,6.99051,14.3778Q6.96316,14.3368,6.94431,14.2913Q6.92546,14.2458,6.91586,14.1975Q6.90625,14.1492,6.90625,14.1Q6.90625,14.0508,6.91586,14.0025Q6.92546,13.9542,6.94431,13.9087Q6.96316,13.8632,6.99051,13.8222Q7.01787,13.7813,7.0527,13.7464Q7.08752,13.7116,7.12846,13.6843Q7.16941,13.6569,7.21491,13.6381Q7.26041,13.6192,7.3087,13.6096Q7.357,13.6,7.40625,13.6Q7.4555,13.6,7.50379,13.6096Q7.55209,13.6192,7.59759,13.6381Q7.64309,13.6569,7.68403,13.6843Q7.72498,13.7116,7.7598,13.7464Q7.79462,13.7813,7.82198,13.8222Q7.84934,13.8632,7.86819,13.9087Q7.88703,13.9542,7.89664,14.0025Q7.90625,14.0508,7.90625,14.1ZM14,0.5Q14,0.5492457,13.9904,0.5975451Q13.9808,0.645845,13.9619,0.691342Q13.9431,0.736839,13.9157,0.777785Q13.8884,0.818731,13.8536,0.853553Q13.8187,0.888375,13.7778,0.915735Q13.7368,0.943094,13.6913,0.96194Q13.6458,0.980785,13.5975,0.9903930000000001Q13.5492,1,13.5,1Q13.4508,1,13.4025,0.9903930000000001Q13.3542,0.980785,13.3087,0.96194Q13.2632,0.943094,13.2222,0.915735Q13.1813,0.888375,13.1464,0.853553Q13.1116,0.818731,13.0843,0.777785Q13.0569,0.736839,13.0381,0.691342Q13.0192,0.645845,13.0096,0.5975451Q13,0.5492457,13,0.5Q13,0.4507543,13.0096,0.4024549Q13.0192,0.354155,13.0381,0.308658Q13.0569,0.263161,13.0843,0.222215Q13.1116,0.181269,13.1464,0.146447Q13.1813,0.11162499999999997,13.2222,0.08426499999999998Q13.2632,0.05690600000000001,13.3087,0.03805999999999998Q13.3542,0.019214999999999982,13.4025,0.009606999999999977Q13.4508,0,13.5,0Q13.5492,0,13.5975,0.009606999999999977Q13.6458,0.019214999999999982,13.6913,0.03805999999999998Q13.7368,0.05690600000000001,13.7778,0.08426499999999998Q13.8187,0.11162499999999997,13.8536,0.146447Q13.8884,0.181269,13.9157,0.222215Q13.9431,0.263161,13.9619,0.308658Q13.9808,0.354155,13.9904,0.4024549Q14,0.4507543,14,0.5ZM1,0.5Q1,0.5492457,0.9903930000000001,0.5975451Q0.980785,0.645845,0.96194,0.691342Q0.943094,0.736839,0.915735,0.777785Q0.888375,0.818731,0.853553,0.853553Q0.818731,0.888375,0.777785,0.915735Q0.736839,0.943094,0.691342,0.96194Q0.645845,0.980785,0.5975451,0.9903930000000001Q0.5492457,1,0.5,1Q0.4507543,1,0.4024549,0.9903930000000001Q0.354155,0.980785,0.308658,0.96194Q0.263161,0.943094,0.222215,0.915735Q0.181269,0.888375,0.146447,0.853553Q0.11162499999999997,0.818731,0.08426499999999998,0.777785Q0.05690600000000001,0.736839,0.03805999999999998,0.691342Q0.019214999999999982,0.645845,0.009606999999999977,0.5975451Q0,0.5492457,0,0.5Q0,0.4507543,0.009606999999999977,0.4024549Q0.019214999999999982,0.354155,0.03805999999999998,0.308658Q0.05690600000000001,0.263161,0.08426499999999998,0.222215Q0.11162499999999997,0.181269,0.146447,0.146447Q0.181269,0.11162499999999997,0.222215,0.08426499999999998Q0.263161,0.05690600000000001,0.308658,0.03805999999999998Q0.354155,0.019214999999999982,0.4024549,0.009606999999999977Q0.4507543,0,0.5,0Q0.5492457,0,0.5975451,0.009606999999999977Q0.645845,0.019214999999999982,0.691342,0.03805999999999998Q0.736839,0.05690600000000001,0.777785,0.08426499999999998Q0.818731,0.11162499999999997,0.853553,0.146447Q0.888375,0.181269,0.915735,0.222215Q0.943094,0.263161,0.96194,0.308658Q0.980785,0.354155,0.9903930000000001,0.4024549Q1,0.4507543,1,0.5ZM6.28125,9.3Q6.28125,9.34925,6.27164,9.39754Q6.26203,9.44584,6.24319,9.49134Q6.22434,9.53684,6.19698,9.57778Q6.16963,9.61873,6.1348,9.65355Q6.09998,9.68837,6.05903,9.71573Q6.01809,9.74309,5.97259,9.76194Q5.92709,9.78078,5.87879,9.79039Q5.8305,9.8,5.78125,9.8Q5.732,9.8,5.6837,9.79039Q5.6354,9.78078,5.58991,9.76194Q5.54441,9.74309,5.50346,9.71573Q5.46252,9.68837,5.4277,9.65355Q5.39287,9.61873,5.36551,9.57778Q5.33815,9.53684,5.31931,9.49134Q5.30046,9.44584,5.29086,9.39754Q5.28125,9.34925,5.28125,9.3Q5.28125,9.25075,5.29086,9.20245Q5.30046,9.15415,5.31931,9.10866Q5.33815,9.06316,5.36551,9.02221Q5.39287,8.98127,5.4277,8.94645Q5.46252,8.91162,5.50346,8.88426Q5.54441,8.8569,5.58991,8.83806Q5.6354,8.81921,5.6837,8.80961Q5.732,8.8,5.78125,8.8Q5.8305,8.8,5.87879,8.80961Q5.92709,8.81921,5.97259,8.83806Q6.01809,8.8569,6.05903,8.88426Q6.09998,8.91162,6.1348,8.94645Q6.16963,8.98127,6.19698,9.02221Q6.22434,9.06316,6.24319,9.10866Q6.26203,9.15415,6.27164,9.20245Q6.28125,9.25075,6.28125,9.3ZM2.625,0.5Q2.625,0.5492457,2.61539,0.5975451Q2.60578,0.645845,2.58694,0.691342Q2.56809,0.736839,2.54073,0.777785Q2.51338,0.818731,2.4785500000000003,0.853553Q2.44373,0.888375,2.40278,0.915735Q2.36184,0.943094,2.3163400000000003,0.96194Q2.2708399999999997,0.980785,2.22254,0.9903930000000001Q2.17425,1,2.125,1Q2.07575,1,2.02745,0.9903930000000001Q1.97916,0.980785,1.93366,0.96194Q1.88816,0.943094,1.84721,0.915735Q1.80627,0.888375,1.77145,0.853553Q1.73662,0.818731,1.70926,0.777785Q1.68191,0.736839,1.66306,0.691342Q1.64421,0.645845,1.63461,0.5975451Q1.625,0.5492457,1.625,0.5Q1.625,0.4507543,1.63461,0.4024549Q1.64421,0.354155,1.66306,0.308658Q1.68191,0.263161,1.70927,0.222215Q1.73662,0.181269,1.77145,0.146447Q1.80627,0.11162499999999997,1.84721,0.08426499999999998Q1.88816,0.05690600000000001,1.93366,0.03805999999999998Q1.97916,0.019214999999999982,2.02745,0.009606999999999977Q2.07575,0,2.125,0Q2.17425,0,2.22254,0.009606999999999977Q2.2708399999999997,0.019214999999999982,2.3163400000000003,0.03805999999999998Q2.36184,0.05690600000000001,2.40278,0.08426499999999998Q2.44373,0.11162499999999997,2.4785500000000003,0.146447Q2.51338,0.181269,2.54073,0.222215Q2.56809,0.263161,2.58694,0.308658Q2.60578,0.354155,2.61539,0.4024549Q2.625,0.4507543,2.625,0.5ZM12.375,16.5Q12.375,16.5492,12.3654,16.5975Q12.3558,16.6458,12.3369,16.6913Q12.3181,16.7368,12.2907,16.7778Q12.2634,16.8187,12.2286,16.8536Q12.1937,16.8884,12.1528,16.9157Q12.1118,16.9431,12.0663,16.9619Q12.0208,16.9808,11.9725,16.9904Q11.9242,17,11.875,17Q11.8258,17,11.7775,16.9904Q11.7292,16.9808,11.6837,16.9619Q11.6382,16.9431,11.5972,16.9157Q11.5563,16.8884,11.5214,16.8536Q11.4866,16.8187,11.4593,16.7778Q11.4319,16.7368,11.4131,16.6913Q11.3942,16.6458,11.3846,16.5975Q11.375,16.5492,11.375,16.5Q11.375,16.4508,11.3846,16.4025Q11.3942,16.3542,11.4131,16.3087Q11.4319,16.263199999999998,11.4593,16.2222Q11.4866,16.1813,11.5214,16.1464Q11.5563,16.1116,11.5972,16.0843Q11.6382,16.0569,11.6837,16.0381Q11.7292,16.019199999999998,11.7775,16.0096Q11.8258,16,11.875,16Q11.9242,16,11.9725,16.0096Q12.0208,16.019199999999998,12.0663,16.0381Q12.1118,16.0569,12.1528,16.0843Q12.1937,16.1116,12.2286,16.1464Q12.2634,16.1813,12.2907,16.2222Q12.3181,16.263199999999998,12.3369,16.3087Q12.3558,16.3542,12.3654,16.4025Q12.375,16.4508,12.375,16.5ZM2.625,16.5Q2.625,16.5492,2.61539,16.5975Q2.60578,16.6458,2.58694,16.6913Q2.56809,16.7368,2.54073,16.7778Q2.51338,16.8187,2.4785500000000003,16.8536Q2.44373,16.8884,2.40278,16.9157Q2.36184,16.9431,2.3163400000000003,16.9619Q2.2708399999999997,16.9808,2.22254,16.9904Q2.17425,17,2.125,17Q2.07575,17,2.02745,16.9904Q1.97916,16.9808,1.93366,16.9619Q1.88816,16.9431,1.84721,16.9157Q1.80627,16.8884,1.77145,16.8536Q1.73662,16.8187,1.70926,16.7778Q1.68191,16.7368,1.66306,16.6913Q1.64421,16.6458,1.63461,16.5975Q1.625,16.5492,1.625,16.5Q1.625,16.4508,1.63461,16.4025Q1.64421,16.3542,1.66306,16.3087Q1.68191,16.263199999999998,1.70927,16.2222Q1.73662,16.1813,1.77145,16.1464Q1.80627,16.1116,1.84721,16.0843Q1.88816,16.0569,1.93366,16.0381Q1.97916,16.019199999999998,2.02745,16.0096Q2.07575,16,2.125,16Q2.17425,16,2.22254,16.0096Q2.2708399999999997,16.019199999999998,2.3163400000000003,16.0381Q2.36184,16.0569,2.40278,16.0843Q2.44373,16.1116,2.4785500000000003,16.1464Q2.51338,16.1813,2.54073,16.2222Q2.56809,16.263199999999998,2.58694,16.3087Q2.60578,16.3542,2.61539,16.4025Q2.625,16.4508,2.625,16.5ZM9.73438,8.3Q9.73437,8.34925,9.72477,8.39754Q9.71516,8.44584,9.69631,8.491340000000001Q9.67747,8.53684,9.65011,8.57778Q9.62275,8.61873,9.58793,8.65355Q9.55311,8.68837,9.51216,8.71573Q9.47121,8.74309,9.42572,8.76194Q9.38022,8.78078,9.33192,8.79039Q9.28362,8.8,9.23438,8.8Q9.18513,8.8,9.13683,8.79039Q9.08853,8.78078,9.04303,8.76194Q8.99753,8.74309,8.95659,8.71573Q8.91564,8.68837,8.88082,8.65355Q8.846,8.61873,8.81864,8.57778Q8.79128,8.53684,8.77243,8.491340000000001Q8.75359,8.44584,8.74398,8.39754Q8.73437,8.34925,8.73438,8.3Q8.73437,8.25075,8.74398,8.202449999999999Q8.75359,8.15415,8.77243,8.10866Q8.79128,8.06316,8.81864,8.022210000000001Q8.846,7.98127,8.88082,7.94645Q8.91564,7.91162,8.95659,7.88426Q8.99753,7.85691,9.04303,7.83806Q9.08853,7.81921,9.13683,7.80961Q9.18513,7.8,9.23438,7.8Q9.28362,7.8,9.33192,7.80961Q9.38022,7.81921,9.42572,7.83806Q9.47121,7.85691,9.51216,7.88427Q9.55311,7.91162,9.58793,7.94645Q9.62275,7.98127,9.65011,8.022210000000001Q9.67747,8.06316,9.69631,8.10866Q9.71516,8.15415,9.72477,8.202449999999999Q9.73437,8.25075,9.73438,8.3ZM8.71875,7.3Q8.71875,7.34925,8.70914,7.39754Q8.69954,7.44584,8.68069,7.49134Q8.66184,7.53684,8.63448,7.57778Q8.60712,7.61873,8.5723,7.65355Q8.53748,7.68837,8.49653,7.71573Q8.45559,7.74309,8.41009,7.76194Q8.36459,7.78078,8.31629,7.79039Q8.268,7.8,8.21875,7.8Q8.1695,7.8,8.1212,7.79039Q8.0729,7.78078,8.02741,7.76194Q7.98191,7.74309,7.94096,7.71573Q7.90002,7.68837,7.8652,7.65355Q7.83037,7.61873,7.80301,7.57778Q7.77565,7.53684,7.75681,7.49134Q7.73796,7.44584,7.72836,7.39754Q7.71875,7.34925,7.71875,7.3Q7.71875,7.25075,7.72836,7.20245Q7.73796,7.15415,7.75681,7.10866Q7.77565,7.06316,7.80301,7.02221Q7.83037,6.98127,7.8652,6.94645Q7.90002,6.91162,7.94096,6.88426Q7.98191,6.85691,8.02741,6.83806Q8.0729,6.81921,8.1212,6.80961Q8.1695,6.8,8.21875,6.8Q8.268,6.8,8.31629,6.80961Q8.36459,6.81921,8.41009,6.83806Q8.45559,6.85691,8.49653,6.88427Q8.53748,6.91162,8.5723,6.94645Q8.60712,6.98127,8.63448,7.02221Q8.66184,7.06316,8.68069,7.10866Q8.69953,7.15415,8.70914,7.20245Q8.71875,7.25075,8.71875,7.3ZM7.5,14.1Q7.5,14.1492,7.49039,14.1975Q7.48078,14.2458,7.46194,14.2913Q7.44309,14.3368,7.41573,14.3778Q7.38837,14.4187,7.35355,14.4536Q7.31873,14.4884,7.27778,14.5157Q7.23684,14.5431,7.19134,14.5619Q7.14584,14.5808,7.09754,14.5904Q7.04925,14.6,7,14.6Q6.95075,14.6,6.90245,14.5904Q6.85415,14.5808,6.80866,14.5619Q6.76316,14.5431,6.72221,14.5157Q6.68127,14.4884,6.64645,14.4536Q6.61162,14.4187,6.58426,14.3778Q6.5569,14.3368,6.53806,14.2913Q6.51921,14.2458,6.50961,14.1975Q6.5,14.1492,6.5,14.1Q6.5,14.0508,6.50961,14.0025Q6.51921,13.9542,6.53806,13.9087Q6.5569,13.8632,6.58426,13.8222Q6.61162,13.7813,6.64645,13.7464Q6.68127,13.7116,6.72221,13.6843Q6.76316,13.6569,6.80866,13.6381Q6.85415,13.6192,6.90245,13.6096Q6.95075,13.6,7,13.6Q7.04925,13.6,7.09754,13.6096Q7.14584,13.6192,7.19134,13.6381Q7.23684,13.6569,7.27778,13.6843Q7.31873,13.7116,7.35355,13.7464Q7.38837,13.7813,7.41573,13.8222Q7.44309,13.8632,7.46194,13.9087Q7.48078,13.9542,7.49039,14.0025Q7.5,14.0508,7.5,14.1ZM12.375,0.5Q12.375,0.5492457,12.3654,0.5975451Q12.3558,0.645845,12.3369,0.691342Q12.3181,0.736839,12.2907,0.777785Q12.2634,0.818731,12.2286,0.853553Q12.1937,0.888375,12.1528,0.915735Q12.1118,0.943094,12.0663,0.96194Q12.0208,0.980785,11.9725,0.9903930000000001Q11.9242,1,11.875,1Q11.8258,1,11.7775,0.9903930000000001Q11.7292,0.980785,11.6837,0.96194Q11.6382,0.943094,11.5972,0.915735Q11.5563,0.888375,11.5214,0.853553Q11.4866,0.818731,11.4593,0.777785Q11.4319,0.736839,11.4131,0.691342Q11.3942,0.645845,11.3846,0.5975451Q11.375,0.5492457,11.375,0.5Q11.375,0.4507543,11.3846,0.4024549Q11.3942,0.354155,11.4131,0.308658Q11.4319,0.263161,11.4593,0.222215Q11.4866,0.181269,11.5214,0.146447Q11.5563,0.11162499999999997,11.5972,0.08426499999999998Q11.6382,0.05690600000000001,11.6837,0.03805999999999998Q11.7292,0.019214999999999982,11.7775,0.009606999999999977Q11.8258,0,11.875,0Q11.9242,0,11.9725,0.009606999999999977Q12.0208,0.019214999999999982,12.0663,0.03805999999999998Q12.1118,0.05690600000000001,12.1528,0.08426499999999998Q12.1937,0.11162499999999997,12.2286,0.146447Q12.2634,0.181269,12.2907,0.222215Q12.3181,0.263161,12.3369,0.308658Q12.3558,0.354155,12.3654,0.4024549Q12.375,0.4507543,12.375,0.5Z" fill="#6B7280" fill-opacity="1"/></svg>