<svg xmlns="http://www.w3.org/2000/svg" xmlns:xlink="http://www.w3.org/1999/xlink" fill="none" version="1.1" width="14" height="14" viewBox="0 0 14 14"><path d="M11.0015,7.67346L8.11266,11.2846Q8.08189,11.323,8.04422,11.3547Q8.006540000000001,11.3864,7.96341,11.4102Q7.92027,11.434,7.87332,11.4488Q7.82638,11.4637,7.77744,11.4692Q7.72849,11.4746,7.67943,11.4704Q7.63036,11.4662,7.58306,11.4525Q7.53576,11.4388,7.49205,11.4161Q7.44833,11.3934,7.40987,11.3627L5.60432,9.91821Q5.56586,9.88745,5.53415,9.84977Q5.50244,9.8121,5.47868,9.76896Q5.45493,9.72582,5.44004,9.67888Q5.42516,9.63194,5.41972,9.58299Q5.41429,9.53405,5.4185,9.48498Q5.42272,9.43592,5.43642,9.38862Q5.45013,9.34132,5.4728,9.2976Q5.49547,9.25388,5.52623,9.21543Q5.557,9.17698,5.59467,9.14526Q5.63234,9.11355,5.67548,9.08979Q5.71862,9.06604,5.76556,9.05116Q5.81251,9.03627,5.86145,9.03084Q5.91039,9.0254,5.95946,9.02961Q6.00852,9.03383,6.05582,9.04753Q6.10312,9.06124,6.14684,9.08391Q6.19056,9.10658,6.22901,9.13734L8.03457,10.5818L7.72222,10.9722L7.33179,10.6599L10.22068,7.04876Q10.25144,7.01031,10.28911,6.97859Q10.32679,6.94688,10.36993,6.92313Q10.41306,6.89937,10.46001,6.88449Q10.5069,6.86961,10.5559,6.86417Q10.6048,6.85873,10.6539,6.86295Q10.703,6.86716,10.7503,6.88087Q10.7976,6.89457,10.8413,6.91724Q10.885,6.93991,10.9235,6.97068Q10.9619,7.00144,10.9936,7.03911Q11.0253,7.07679,11.0491,7.11993Q11.0728,7.16306,11.0877,7.21001Q11.1026,7.25695,11.1081,7.30589Q11.1135,7.35484,11.1093,7.4039Q11.1051,7.45297,11.0914,7.50027Q11.0776,7.54757,11.055,7.59129Q11.0323,7.635,11.0015,7.67346ZM10.6111,4.25L3.38889,4.25Q3.33964,4.25,3.29134,4.24039Q3.24304,4.23078,3.19755,4.21194Q3.15205,4.19309,3.1111,4.16573Q3.07016,4.13837,3.03534,4.10355Q3.00051,4.06873,2.97315,4.02778Q2.94579,3.98684,2.92695,3.94134Q2.9081,3.89584,2.8985,3.84754Q2.88889,3.79925,2.88889,3.75Q2.88889,3.70075,2.8985,3.65245Q2.9081,3.60416,2.92695,3.55866Q2.94579,3.51316,2.97315,3.47221Q3.00051,3.43127,3.03534,3.39645Q3.07016,3.36162,3.1111,3.33426Q3.15205,3.30691,3.19755,3.28806Q3.24304,3.26921,3.29134,3.25961Q3.33964,3.25,3.38889,3.25L10.6111,3.25Q10.6604,3.25,10.7087,3.25961Q10.757,3.26921,10.8025,3.28806Q10.8479,3.30691,10.8889,3.33426Q10.9298,3.36162,10.9647,3.39645Q10.9995,3.43127,11.0268,3.47221Q11.0542,3.51316,11.073,3.55866Q11.0919,3.60416,11.1015,3.65245Q11.1111,3.70075,11.1111,3.75Q11.1111,3.79925,11.1015,3.84754Q11.0919,3.89584,11.073,3.94134Q11.0542,3.98684,11.0268,4.02778Q10.9995,4.06873,10.9647,4.10355Q10.9298,4.13837,10.8889,4.16573Q10.8479,4.19309,10.8025,4.21194Q10.757,4.23078,10.7087,4.24039Q10.6604,4.25,10.6111,4.25ZM6.27778,7.13889L3.38889,7.13889Q3.33964,7.13889,3.29134,7.12928Q3.24304,7.11967,3.19755,7.10083Q3.15205,7.08198,3.1111,7.05462Q3.07016,7.02726,3.03534,6.99244Q3.00051,6.95762,2.97315,6.91667Q2.94579,6.87573,2.92695,6.83023Q2.9081,6.78473,2.8985,6.73643Q2.88889,6.68813,2.88889,6.63889Q2.88889,6.58964,2.8985,6.54134Q2.9081,6.49304,2.92695,6.44755Q2.94579,6.40205,2.97315,6.3611Q3.00051,6.32016,3.03534,6.28534Q3.07016,6.25051,3.1111,6.22315Q3.15205,6.19579,3.19755,6.17695Q3.24304,6.1581,3.29134,6.1485Q3.33964,6.13889,3.38889,6.13889L6.27778,6.13889Q6.32702,6.13889,6.37532,6.1485Q6.42362,6.1581,6.46912,6.17695Q6.51462,6.19579,6.55556,6.22315Q6.59651,6.25051,6.63133,6.28534Q6.66615,6.32016,6.69351,6.3611Q6.72087,6.40205,6.73972,6.44755Q6.75856,6.49304,6.76817,6.54134Q6.77778,6.58964,6.77778,6.63889Q6.77778,6.68813,6.76817,6.73643Q6.75856,6.78473,6.73972,6.83023Q6.72087,6.87573,6.69351,6.91667Q6.66615,6.95762,6.63133,6.99244Q6.59651,7.02726,6.55556,7.05462Q6.51462,7.08198,6.46912,7.10083Q6.42362,7.11967,6.37532,7.12928Q6.32702,7.13889,6.27778,7.13889ZM13,1.58333Q13,1.3417059999999998,12.8291,1.1708539999999998Q12.6583,1,12.4167,1L1.58333,1Q1.341711,1,1.1708560000000001,1.1708560000000001Q1,1.341711,1,1.58333L1,12.4167Q1,12.6583,1.1708539999999998,12.8291Q1.3417059999999998,13,1.58333,13L12.4167,13Q12.6583,13,12.8292,12.8292Q13,12.6583,13,12.4167L13,1.58333ZM14,1.58333L14,12.4167Q14,13.0725,13.5363,13.5363Q13.0725,14,12.4167,14L1.58333,14Q0.927496,14,0.4637506,13.5363Q0,13.0725,0,12.4167L0,1.58333Q0,0.9274979999999999,0.4637488,0.4637488Q0.9274979999999999,0,1.58333,0L12.4167,0Q13.0725,0,13.5363,0.4637506Q14,0.927496,14,1.58333ZM11.1111,7.36111Q11.1111,7.41036,11.1015,7.45866Q11.0919,7.50695,11.073,7.55245Q11.0542,7.59795,11.0268,7.6389Q10.9995,7.67984,10.9647,7.71466Q10.9298,7.74949,10.8889,7.77684Q10.8479,7.8042,10.8025,7.82305Q10.757,7.8419,10.7087,7.8515Q10.6604,7.86111,10.6111,7.86111Q10.5619,7.86111,10.5136,7.8515Q10.46527,7.8419,10.41977,7.82305Q10.37427,7.8042,10.33332,7.77684Q10.29238,7.74949,10.25756,7.71466Q10.22273,7.67984,10.19537,7.6389Q10.16802,7.59795,10.14917,7.55245Q10.13032,7.50695,10.12072,7.45866Q10.11111,7.41036,10.11111,7.36111Q10.11111,7.31187,10.12072,7.26357Q10.13032,7.21527,10.14917,7.16977Q10.16802,7.12427,10.19537,7.08333Q10.22273,7.04238,10.25756,7.00756Q10.29238,6.97273,10.33332,6.94538Q10.37427,6.91802,10.41977,6.89917Q10.46527,6.88033,10.5136,6.87072Q10.5619,6.86111,10.6111,6.86111Q10.6604,6.86111,10.7087,6.87072Q10.757,6.88033,10.8025,6.89917Q10.8479,6.91802,10.8889,6.94538Q10.9298,6.97273,10.9647,7.00756Q10.9995,7.04238,11.0268,7.08333Q11.0542,7.12427,11.073,7.16977Q11.0919,7.21527,11.1015,7.26357Q11.1111,7.31187,11.1111,7.36111ZM11.1111,3.75Q11.1111,3.79925,11.1015,3.84754Q11.0919,3.89584,11.073,3.94134Q11.0542,3.98684,11.0268,4.02778Q10.9995,4.06873,10.9647,4.10355Q10.9298,4.13837,10.8889,4.16573Q10.8479,4.19309,10.8025,4.21194Q10.757,4.23078,10.7087,4.24039Q10.6604,4.25,10.6111,4.25Q10.5619,4.25,10.5136,4.24039Q10.46527,4.23078,10.41977,4.21194Q10.37427,4.19309,10.33332,4.16573Q10.29238,4.13837,10.25756,4.10355Q10.22273,4.06873,10.19537,4.02778Q10.16802,3.98684,10.14917,3.94134Q10.13032,3.89584,10.12072,3.84754Q10.11111,3.79925,10.11111,3.75Q10.11111,3.70075,10.12072,3.65245Q10.13032,3.60416,10.14917,3.55866Q10.16802,3.51316,10.19537,3.47221Q10.22273,3.43127,10.25756,3.39645Q10.29238,3.36162,10.33332,3.33426Q10.37427,3.30691,10.41977,3.28806Q10.46527,3.26921,10.5136,3.25961Q10.5619,3.25,10.6111,3.25Q10.6604,3.25,10.7087,3.25961Q10.757,3.26921,10.8025,3.28806Q10.8479,3.30691,10.8889,3.33426Q10.9298,3.36162,10.9647,3.39645Q10.9995,3.43127,11.0268,3.47221Q11.0542,3.51316,11.073,3.55866Q11.0919,3.60416,11.1015,3.65245Q11.1111,3.70075,11.1111,3.75ZM6.77778,6.63889Q6.77778,6.68813,6.76817,6.73643Q6.75856,6.78473,6.73972,6.83023Q6.72087,6.87573,6.69351,6.91667Q6.66615,6.95762,6.63133,6.99244Q6.59651,7.02726,6.55556,7.05462Q6.51462,7.08198,6.46912,7.10083Q6.42362,7.11967,6.37532,7.12928Q6.32702,7.13889,6.27778,7.13889Q6.22853,7.13889,6.18023,7.12928Q6.13193,7.11967,6.08644,7.10083Q6.04094,7.08198,5.99999,7.05462Q5.95905,7.02726,5.92422,6.99244Q5.8894,6.95762,5.86204,6.91667Q5.83468,6.87573,5.81584,6.83023Q5.79699,6.78473,5.78738,6.73643Q5.77778,6.68813,5.77778,6.63889Q5.77778,6.58964,5.78738,6.54134Q5.79699,6.49304,5.81584,6.44755Q5.83468,6.40205,5.86204,6.3611Q5.8894,6.32016,5.92422,6.28534Q5.95905,6.25051,5.99999,6.22315Q6.04094,6.19579,6.08644,6.17695Q6.13193,6.1581,6.18023,6.1485Q6.22853,6.13889,6.27778,6.13889Q6.32702,6.13889,6.37532,6.1485Q6.42362,6.1581,6.46912,6.17695Q6.51462,6.19579,6.55556,6.22315Q6.59651,6.25051,6.63133,6.28534Q6.66615,6.32016,6.69351,6.3611Q6.72087,6.40205,6.73972,6.44755Q6.75856,6.49304,6.76817,6.54134Q6.77778,6.58964,6.77778,6.63889ZM6.41667,9.52778Q6.41667,9.57702,6.40706,9.62532Q6.39745,9.67362,6.37861,9.71912Q6.35976,9.76461,6.3324,9.80556Q6.30504,9.84651,6.27022,9.88133Q6.2354,9.91615,6.19445,9.94351Q6.1535,9.97087,6.10801,9.98972Q6.06251,10.00856,6.01421,10.01817Q5.96591,10.02778,5.91667,10.02778Q5.86742,10.02778,5.81912,10.01817Q5.77082,10.00856,5.72532,9.98972Q5.67983,9.97087,5.63888,9.94351Q5.59793,9.91615,5.56311,9.88133Q5.52829,9.84651,5.50093,9.80556Q5.47357,9.76461,5.45473,9.71912Q5.43588,9.67362,5.42627,9.62532Q5.41667,9.57702,5.41667,9.52778Q5.41667,9.47853,5.42627,9.43023Q5.43588,9.38193,5.45473,9.33644Q5.47357,9.29094,5.50093,9.24999Q5.52829,9.20904,5.56311,9.17422Q5.59793,9.1394,5.63888,9.11204Q5.67983,9.08468,5.72532,9.06584Q5.77082,9.04699,5.81912,9.03738Q5.86742,9.02778,5.91667,9.02778Q5.96591,9.02778,6.01421,9.03738Q6.06251,9.04699,6.10801,9.06584Q6.1535,9.08468,6.19445,9.11204Q6.2354,9.1394,6.27022,9.17422Q6.30504,9.20904,6.3324,9.24999Q6.35976,9.29094,6.37861,9.33644Q6.39745,9.38193,6.40706,9.43023Q6.41667,9.47853,6.41667,9.52778ZM3.88889,3.75Q3.88889,3.79925,3.87928,3.84754Q3.86967,3.89584,3.85083,3.94134Q3.83198,3.98684,3.80462,4.02778Q3.77726,4.06873,3.74244,4.10355Q3.70762,4.13837,3.66667,4.16573Q3.62573,4.19309,3.58023,4.21194Q3.53473,4.23078,3.48643,4.24039Q3.43813,4.25,3.38889,4.25Q3.33964,4.25,3.29134,4.24039Q3.24304,4.23078,3.19755,4.21194Q3.15205,4.19309,3.1111,4.16573Q3.07016,4.13837,3.03534,4.10355Q3.00051,4.06873,2.97315,4.02778Q2.94579,3.98684,2.92695,3.94134Q2.9081,3.89584,2.8985,3.84754Q2.88889,3.79925,2.88889,3.75Q2.88889,3.70075,2.8985,3.65245Q2.9081,3.60416,2.92695,3.55866Q2.94579,3.51316,2.97315,3.47221Q3.00051,3.43127,3.03534,3.39645Q3.07016,3.36162,3.1111,3.33426Q3.15205,3.30691,3.19755,3.28806Q3.24304,3.26921,3.29134,3.25961Q3.33964,3.25,3.38889,3.25Q3.43813,3.25,3.48643,3.25961Q3.53473,3.26921,3.58023,3.28806Q3.62573,3.30691,3.66667,3.33426Q3.70762,3.36162,3.74244,3.39645Q3.77726,3.43127,3.80462,3.47221Q3.83198,3.51316,3.85083,3.55866Q3.86967,3.60416,3.87928,3.65245Q3.88889,3.70075,3.88889,3.75ZM3.88889,6.63889Q3.88889,6.68813,3.87928,6.73643Q3.86967,6.78473,3.85083,6.83023Q3.83198,6.87573,3.80462,6.91667Q3.77726,6.95762,3.74244,6.99244Q3.70762,7.02726,3.66667,7.05462Q3.62573,7.08198,3.58023,7.10083Q3.53473,7.11967,3.48643,7.12928Q3.43813,7.13889,3.38889,7.13889Q3.33964,7.13889,3.29134,7.12928Q3.24304,7.11967,3.19755,7.10083Q3.15205,7.08198,3.1111,7.05462Q3.07016,7.02726,3.03534,6.99244Q3.00051,6.95762,2.97315,6.91667Q2.94579,6.87573,2.92695,6.83023Q2.9081,6.78473,2.8985,6.73643Q2.88889,6.68813,2.88889,6.63889Q2.88889,6.58964,2.8985,6.54134Q2.9081,6.49304,2.92695,6.44755Q2.94579,6.40205,2.97315,6.3611Q3.00051,6.32016,3.03534,6.28534Q3.07016,6.25051,3.1111,6.22315Q3.15205,6.19579,3.19755,6.17695Q3.24304,6.1581,3.29134,6.1485Q3.33964,6.13889,3.38889,6.13889Q3.43813,6.13889,3.48643,6.1485Q3.53473,6.1581,3.58023,6.17695Q3.62573,6.19579,3.66667,6.22315Q3.70762,6.25051,3.74244,6.28534Q3.77726,6.32016,3.80462,6.3611Q3.83198,6.40205,3.85083,6.44755Q3.86967,6.49304,3.87928,6.54134Q3.88889,6.58964,3.88889,6.63889Z" fill="#6B7280" fill-opacity="1"/></svg>