<?xml version="1.0" standalone="no"?><!DOCTYPE svg PUBLIC "-//W3C//DTD SVG 1.1//EN" "http://www.w3.org/Graphics/SVG/1.1/DTD/svg11.dtd"><svg t="1632472567281" class="icon" viewBox="0 0 1024 1024" version="1.1" xmlns="http://www.w3.org/2000/svg" p-id="1281" width="64" height="64" xmlns:xlink="http://www.w3.org/1999/xlink"><defs><style type="text/css"></style></defs><path d="M375.46666667 34.13333333H109.22666667c-54.61333333 0-95.57333333 44.37333333-95.57333334 95.57333334v242.34666666c0 54.61333333 44.37333333 95.57333333 95.57333334 95.57333334H375.46666667c54.61333333 0 95.57333333-44.37333333 95.57333333-95.57333334V129.70666667c0-51.2-40.96-95.57333333-95.57333333-95.57333334z m47.78666666 337.92c0 27.30666667-20.48 47.78666667-47.78666666 47.78666667H109.22666667c-27.30666667 0-47.78666667-20.48-47.78666667-47.78666667V129.70666667c0-27.30666667 20.48-47.78666667 47.78666667-47.78666667H375.46666667c27.30666667 0 47.78666667 20.48 47.78666666 47.78666667v242.34666666zM170.66666667 170.66666667h143.36v143.36H170.66666667V170.66666667z m197.97333333 375.46666666h-259.41333333c-51.2 0-92.16 40.96-92.16 95.57333334v235.52c0 51.2 40.96 95.57333333 92.16 95.57333333h259.41333333c51.2 0 92.16-40.96 92.16-95.57333333V641.70666667c3.41333333-54.61333333-40.96-95.57333333-92.16-95.57333334z m47.78666667 327.68c0 27.30666667-20.48 47.78666667-47.78666667 47.78666667h-259.41333333c-27.30666667 0-47.78666667-20.48-47.78666667-47.78666667v-235.52c0-27.30666667 20.48-47.78666667 47.78666667-47.78666666h259.41333333c27.30666667 0 47.78666667 20.48 47.78666667 47.78666666v235.52z m-245.76-194.56h139.94666666v139.94666667H170.66666667v-139.94666667z m471.04-211.62666666h266.24c54.61333333 0 95.57333333-44.37333333 95.57333333-95.57333334V129.70666667c0-54.61333333-44.37333333-95.57333333-95.57333333-95.57333334h-266.24c-54.61333333 0-95.57333333 44.37333333-95.57333334 95.57333334v242.34666666c0 54.61333333 44.37333333 95.57333333 95.57333334 95.57333334zM593.92 129.70666667c0-27.30666667 20.48-47.78666667 47.78666667-47.78666667h266.24c27.30666667 0 47.78666667 20.48 47.78666666 47.78666667v242.34666666c0 27.30666667-20.48 47.78666667-47.78666666 47.78666667h-266.24c-27.30666667 0-47.78666667-20.48-47.78666667-47.78666667V129.70666667z m119.46666667 40.96h143.36v143.36h-143.36V170.66666667z m-136.53333334 559.78666666h146.77333334c13.65333333 0 23.89333333-10.24 23.89333333-23.89333333V559.78666667c0-13.65333333-10.24-23.89333333-23.89333333-23.89333334h-146.77333334c-13.65333333 0-23.89333333 10.24-23.89333333 23.89333334v146.77333333c0 13.65333333 10.24 23.89333333 23.89333333 23.89333333z m334.50666667-163.84v40.96c0 13.65333333 13.65333333 27.30666667 27.30666667 27.30666667h40.96c13.65333333 0 27.30666667-13.65333333 27.30666666-27.30666667V566.61333333c0-13.65333333-13.65333333-27.30666667-27.30666666-27.30666666h-40.96c-13.65333333 0-27.30666667 10.24-27.30666667 27.30666666z m-324.26666667 406.18666667h51.2c13.65333333 0 23.89333333-10.24 23.89333334-23.89333333v-51.2c0-13.65333333-10.24-23.89333333-23.89333334-23.89333334h-51.2c-13.65333333 0-23.89333333 10.24-23.89333333 23.89333334V948.90666667c0 13.65333333 10.24 23.89333333 23.89333333 23.89333333z m385.70666667-256H866.98666667a30.59438933 30.59438933 0 0 0-30.72 30.72v47.78666667H785.06666667c-20.48 0-34.13333333 13.65333333-34.13333334 34.13333333V935.25333333c0 17.06666667 13.65333333 30.72 30.72 30.72l191.14666667 3.41333334c17.06666667 0 30.72-13.65333333 30.72-30.72v-191.14666667c0-17.06666667-13.65333333-30.72-30.72-30.72z" fill="#272636" p-id="1282"></path></svg>