<?xml version="1.0" standalone="no"?><!DOCTYPE svg PUBLIC "-//W3C//DTD SVG 1.1//EN" "http://www.w3.org/Graphics/SVG/1.1/DTD/svg11.dtd"><svg t="1587628994833" class="icon" viewBox="0 0 1024 1024" version="1.1" xmlns="http://www.w3.org/2000/svg" p-id="1317" xmlns:xlink="http://www.w3.org/1999/xlink" width="128" height="128"><defs><style type="text/css"></style></defs><path d="M912.03300552 142.42071539H109.06854353c-48.78234459 0-88.37381268 39.59146809-88.37381266 88.37381267v454.24139716c0 48.78234459 39.59146809 88.37381268 88.37381266 88.37381268h802.78771435c48.78234459 0 88.37381268-39.59146809 88.37381268-88.37381268v-454.24139716c0.17674763-48.78234459-39.59146809-88.37381268-88.19706504-88.37381267z m17.67476252 542.61520983c0 9.72111939-7.95364315 17.67476253-17.67476252 17.67476253H109.06854353c-9.72111939 0-17.67476253-7.95364315-17.67476252-17.67476253v-454.24139716c0-9.72111939 7.95364315-17.67476253 17.67476252-17.67476253h802.78771435c9.72111939 0 17.67476253 7.95364315 17.67476254 17.67476253v454.24139716zM233.67561941 898.37030901H787.60267725v70.69905015H233.67561941z" p-id="1318"></path></svg>