<?xml version="1.0" standalone="no"?><!DOCTYPE svg PUBLIC "-//W3C//DTD SVG 1.1//EN" "http://www.w3.org/Graphics/SVG/1.1/DTD/svg11.dtd"><svg t="1587630992660" class="icon" viewBox="0 0 1024 1024" version="1.1" xmlns="http://www.w3.org/2000/svg" p-id="1264" xmlns:xlink="http://www.w3.org/1999/xlink" width="128" height="128"><defs><style type="text/css"></style></defs><path d="M507.9863205 366.19621262c76.62403129 0 138.97953507 62.35550379 138.97953507 138.97953508s-62.35550379 138.97953507-138.97953507 138.97953507-138.97953507-62.35550379-138.97953508-138.97953507S431.36228921 366.19621262 507.9863205 366.19621262M507.9863205 304.4276315c-110.87477191 0-200.74834375 89.87357184-200.74834375 200.74834375s89.87334542 200.74834375 200.74834375 200.74834376 200.74834375-89.87357184 200.74834375-200.74834376S618.86109241 304.4276315 507.9863205 304.4276315M1004.2684507 627.73804146c8.82703929-37.64038542 13.32435627-76.39844864 13.32435627-115.73684111 0-39.33839133-4.49731698-78.09645454-13.32435627-115.7368411-3.89629497-16.6144-20.52342898-26.92432327-37.13760142-23.0280283-16.6144 3.89629497-26.92432327 20.52342898-23.0280283 37.13760142 7.7441536 33.02231837 11.69206955 67.04611214 11.69206955 101.62726685s-3.94791481 68.60494848-11.69206955 101.62726684c-3.89629497 16.6144 6.4136283 33.24130645 23.0280283 37.13760143C983.74502173 654.66236473 1000.37215573 644.35244032 1004.2684507 627.73804146L1004.2684507 627.73804146zM967.76166059 651.45873408c1.95451449 0 3.59021341 0.02956174 5.0817388 0.09437184 17.04896398 0.74132821 31.47098567-12.47865059 32.21208747-29.52761458 0.74132821-17.04896398-12.47865059-31.47075925-29.52761457-32.21185991-2.47253561-0.10756096-4.97690624-0.15281379-7.76598415-0.1528138-17.06510905 0-30.89884387 13.83396238-30.89884387 30.89907144C936.86281671 637.62477056 950.69655154 651.45873408 967.76166059 651.45873408L967.76166059 651.45873408zM866.87617707 837.34139563c-12.6144091-19.37550677-19.42530731-41.9487323-19.42530731-65.57186958 0-66.44622791 53.86456405-120.31079197 120.31079197-120.31079197 17.06488149 0 30.89884387-13.83396238 30.89884387-30.89907143 0-17.06488149-13.83396238-30.89907143-30.89884387-30.89907143-100.57644601 0-182.10870841 81.53248995-182.10870842 182.10870841 0 35.69223794 10.33971371 69.96048896 29.43369786 99.28889912 9.31072227 14.30127275 28.45200498 18.34697045 42.75327772 9.03602063C872.1412005 870.78372352 876.18689934 851.64244082 866.87617707 837.34139563L866.87617707 837.34139563zM657.76878592 996.24288256c76.88622535-23.09192818 146.93926571-64.27750059 204.63326891-119.77412494 12.29877589-11.83032889 12.67830898-31.39094073 0.84798008-43.68949021s-31.39094073-12.67830898-43.6894902-0.84798008c-50.66002432 48.73052387-112.13503033 84.87278819-179.56795278 105.12561038-16.34379207 4.90868622-25.61380921 22.13729621-20.70512299 38.48108828C624.19615517 991.88155165 641.42476629 1001.15156878 657.76878592 996.24288256L657.76878592 996.24288256zM403.11153323 979.80471979c19.69273173-41.85345138 61.81770013-69.13365675 108.88978546-69.13365675 47.0804992 0 89.23161827 27.28839282 108.92071139 69.13365675 7.26524701 15.44123619 25.67270627 22.06907619 41.11371378 14.80382919 15.44123619-7.26547456 22.06907619-25.67270627 14.80382919-41.11371378-29.7898075-63.31286414-93.59749689-104.62168861-164.8382555-104.62168861-71.23598336 0-135.01524765 41.30382165-164.80732957 104.62168861-7.26524701 15.44100864-0.63763342 33.84846791 14.80360277 41.11371378C377.43882809 1001.87379598 395.84605981 995.24595485 403.11153323 979.80471979L403.11153323 979.80471979zM162.98704896 877.78973241c57.44499939 54.81578382 126.99275378 95.51903858 203.26954325 118.45064818 16.34242787 4.91323392 33.57353984-4.35200797 38.48677376-20.6944347 4.91323392-16.34242787-4.35200797-33.57353984-20.6944347-38.48677376-66.91217294-20.11638101-127.95216099-55.84045511-178.39910912-103.97836971-12.34607559-11.78098347-31.90486813-11.32276963-43.68585159 1.02330595S150.64097337 866.00875008 162.98704896 877.78973241L162.98704896 877.78973241zM58.34102898 651.45873408c66.44622791 0 120.31079197 53.86456405 120.31079196 120.31079197 0 24.03291477-7.04625891 46.98044189-20.06339584 66.55674481-9.44898162 14.21031197-5.58929806 33.38979897 8.62078635 42.83900815 14.21031197 9.44898162 33.38979897 5.58952562 42.83900814-8.62078635 19.70592085-29.63540195 30.40151779-64.46806357 30.4015178-100.77473906 0-100.57621845-81.53248995-182.10870841-182.10870841-182.10870841-17.06510905 0-30.89907143 13.83396238-30.89907143 30.89907143C27.44218397 637.62477056 41.27614749 651.45873408 58.34102898 651.45873408L58.34102898 651.45873408zM51.54309234 651.62837561c2.08299691-0.11438307 4.33427001-0.16964153 6.79793664-0.16964153 17.06510905 0 30.89907143-13.83396238 30.89907143-30.89907143 0-17.06488149-13.83396238-30.89907143-30.89907143-30.89907143-3.54154951 0-6.91027285 0.08254691-10.18849167 0.26287559-17.03941234 0.93621134-30.09338823 15.50831957-29.15717688 32.54773191C19.93179933 639.5103835 34.50367886 652.56458695 51.54309234 651.62837561L51.54309234 651.62837561zM19.76374955 396.17771975c-8.84091107 37.73248285-13.35391801 76.51669789-13.35391801 115.8234806 0 39.30678272 4.51278051 78.09122531 13.35391801 115.82348061 3.89311147 16.61508153 20.51797106 26.92818944 37.13305258 23.03530439 16.61508153-3.89311147 26.92818944-20.51819861 23.0353044-37.13305258-7.761664-33.12669582-11.72435968-67.18118912-11.72435968-101.72573242 0-34.54454329 3.96246926-68.59926414 11.72435968-101.7257324 3.89311147-16.61508153-6.42022286-33.24016867-23.0353044-37.13305259C40.28172061 369.24930389 23.65663346 379.56263822 19.76374955 396.17771975L19.76374955 396.17771975zM58.34102898 372.54366777c-2.46389419 0-4.71516729-0.05525845-6.79793664-0.16964153-17.03941234-0.93621134-31.61129301 12.11799211-32.54773191 29.15717689-0.93621134 17.03941234 12.11799211 31.61129301 29.15717688 32.54773191 3.27799125 0.18010226 6.64694215 0.26264803 10.18849167 0.26264803 17.06510905 0 30.89907143-13.83396238 30.89907143-30.89907142C89.24010041 386.37763015 75.40613803 372.54366777 58.34102898 372.54366777L58.34102898 372.54366777zM158.58842397 185.67635854c13.01895623 19.57880377 20.06339584 42.52701355 20.06339584 66.58744434 0 66.43849557-53.85683285 120.27986489-120.31079197 120.27986489-17.06510905 0-30.89907143 13.83396238-30.89907143 30.89907143 0 17.06510905 13.83396238 30.89907143 30.89907143 30.89907143 100.58031104 0 182.10870841-81.50542905 182.10870841-182.07778133 0-36.33259975-10.69309497-71.16639801-30.4015178-100.80566613-9.44898162-14.21031197-28.62869618-18.06999552-42.83900814-8.62078635S149.13944235 171.46604658 158.58842397 185.67635854L158.58842397 185.67635854zM366.25659221 27.76202013c-76.27678947 22.93183715-145.82454386 63.63486435-203.26954325 118.45064817-12.34607559 11.78098347-12.80406187 31.339776-1.0230784 43.68585159 11.78098347 12.34607559 31.339776 12.80406187 43.68585159 1.0230784 50.44694926-48.13814329 111.48693618-83.86198983 178.39910912-103.9783697 16.34242787-4.91323392 25.60766862-22.14434589 20.6944347-38.48677376C399.83013205 32.11425451 382.59902009 22.84901262 366.25659221 27.76202013L366.25659221 27.76202013zM620.92203122 44.19768206c-19.68750137 41.84208043-61.83657472 69.1338843-108.88978546 69.13388431-47.09960021 0-89.22661547-27.27725056-108.92071139-69.13388431-7.26524701-15.44123619-25.67270627-22.06907619-41.11371378-14.80360277-15.44123619 7.26524701-22.06907619 25.67270627-14.80360278 41.11371378 29.79435634 63.32241465 93.57657657 104.62168861 164.8382555 104.6216886 71.2150619 0 135.01979534-41.31337216 164.80732957-104.6216886 7.26524701-15.44123619 0.63740587-33.84846791-14.80382919-41.11371378C646.59473635 22.12860587 628.18727709 28.75644587 620.92203122 44.19768206L620.92203122 44.19768206zM862.39546027 147.52750365c-57.69127481-55.46069447-127.73817571-96.64262941-204.61530454-119.76434688-16.34197277-4.91505323-33.57399381 4.34836935-38.48904704 20.69011456s4.34836935 33.57399381 20.69034212 38.48904704c67.43951701 20.28306546 128.92111758 56.42942464 179.58591716 105.13538844 12.30218695 11.82669027 31.86257123 11.44101774 43.68926264-0.86116921S874.69764722 159.35419392 862.39546027 147.52750365L862.39546027 147.52750365zM967.76166059 372.54366777c-66.45418667 0-120.31079197-53.84136931-120.31079197-120.27986489 0-23.6506533 6.80930645-46.22456035 19.42530731-65.6025691 9.31072227-14.30127275 5.26502457-33.44255659-9.03624818-42.75327773-14.30127275-9.31072227-33.44255659-5.26502457-42.75327772 9.03624818-19.09671253 29.33227634-29.43369785 63.601664-29.43369785 99.31982507 0 100.57235229 81.52839623 182.07778133 182.10870841 182.07778133 17.06488149 0 30.89884387-13.83396238 30.89884387-30.89907143C998.6605056 386.37763015 984.82654208 372.54366777 967.76166059 372.54366777L967.76166059 372.54366777zM972.84339939 372.44952349c-1.49152541 0.06480896-3.12699677 0.09437184-5.0817388 0.09437184-17.06510905 0-30.89884387 13.83396238-30.89884388 30.89907142 0 17.06510905 13.83373483 30.89907143 30.89884388 30.89907144 2.78930546 0 5.29367723-0.04525283 7.76598414-0.15258624 17.04896398-0.74132821 30.26894279-15.16312349 29.52761458-32.21208747C1004.31415865 384.92817408 989.89236338 371.70819527 972.84339939 372.44952349L972.84339939 372.44952349z" p-id="1265"></path></svg>