<?xml version="1.0" standalone="no"?><!DOCTYPE svg PUBLIC "-//W3C//DTD SVG 1.1//EN" "http://www.w3.org/Graphics/SVG/1.1/DTD/svg11.dtd"><svg t="1591093543319" class="icon" viewBox="0 0 1024 1024" version="1.1" xmlns="http://www.w3.org/2000/svg" p-id="966" xmlns:xlink="http://www.w3.org/1999/xlink" width="128" height="128"><defs><style type="text/css"></style></defs><path d="M257.83106021 592.33244707V438.19148095c43.01916624-17.92550232 71.69181272-57.35548947 71.69181271-103.95363828s-28.682843-86.03833249-71.69181271-100.37465571V47.46039526c0-21.50448485-14.33632325-35.85100462-35.85100463-35.85100462s-35.85100462 14.33632325-35.85100462 35.85100462v186.4027917c-43.01916624 14.33632325-71.69181272 53.76631041-71.69181272 100.37465571s28.682843 86.03833249 71.69181272 100.37465573v154.14096614c-43.01916624 14.33632325-71.69181272 53.76631041-71.69181272 100.37465572s28.682843 86.03833249 71.69181272 100.37465572v189.99197076c0 21.50448485 14.33632325 35.85100462 35.85100462 35.85100462s35.85100462-14.33632325 35.85100463-35.85100462V793.08175852c43.01916624-14.33632325 71.69181272-53.76631041 71.69181271-100.37465572s-28.67264648-86.02813595-71.69181271-100.37465573z m-35.85100463-293.94560902c21.50448485 0 35.85100462 14.33632325 35.85100463 35.85100462s-14.33632325 35.85100462-35.85100463 35.85100464-35.85100462-14.33632325-35.85100462-35.85100464 14.34651977-35.85100462 35.85100462-35.85100462z m0 430.17126937c-21.50448485 0-35.85100462-14.33632325-35.85100462-35.85100462s14.33632325-35.85100462 35.85100462-35.85100463 35.85100462 14.33632325 35.85100463 35.85100463-14.33632325 35.85100462-35.85100463 35.85100462zM829.20389729 738.75463888H483.52108762c-21.60645017 0-43.21290035 14.33632325-43.21290034 35.85100463s17.28312084 35.85100462 43.21290034 35.85100462H829.21409382c21.60645017 0 43.21290035-14.33632325 43.21290034-35.85100462s-17.28312084-35.85100462-43.22309687-35.85100463zM915.65009104 236.89155679h-432.12900342c-21.60645017 0-43.21290035 14.33632325-43.21290034 35.85100462s17.28312084 35.85100462 43.21290034 35.85100463h432.12900342c21.59625365 0 43.20270379-14.33632325 43.2027038-35.85100463s-17.28312084-35.85100462-43.2027038-35.85100462zM829.20389729 451.97719147c21.60645017 0 43.21290035-14.33632325 43.21290035-35.85100462s-17.2729243-35.85100462-43.21290035-35.85100462H483.52108762c-21.60645017 0-43.21290035 14.33632325-43.21290034 35.85100462s17.28312084 35.85100462 43.21290034 35.85100462h345.68280967zM915.65009104 595.36081693h-432.12900342c-21.60645017 0-43.21290035 14.33632325-43.21290034 35.85100462s17.28312084 35.85100462 43.21290034 35.85100462h432.12900342c21.59625365 0 43.20270379-14.33632325 43.2027038-35.85100462s-17.28312084-35.85100462-43.2027038-35.85100462z" p-id="967"></path></svg>