<svg xmlns="http://www.w3.org/2000/svg" xmlns:xlink="http://www.w3.org/1999/xlink" version="1.1" width="27" height="27" viewBox="0 0 27 27"><path d="M18.0974,19.5122L12.7978,14.2126Q12.6571,14.0719,12.581,13.8881Q12.5049,13.7043,12.5049,13.5054L12.5056,5.9999L14.5056,6.0001L14.5049,13.5056L13.5049,13.5055L14.212,12.7984L19.5116,18.098L18.0974,19.5122ZM2,13.5Q2,15.8403,2.90332,17.976Q3.77615,20.0396,5.36828,21.6317Q6.96042,23.2239,9.024,24.0967Q11.1597,25,13.5,25Q15.8403,25,17.976,24.0967Q20.0396,23.2239,21.6317,21.6317Q23.2239,20.0396,24.0967,17.976Q25,15.8403,25,13.5Q25,11.1597,24.0967,9.02398Q23.2239,6.9604,21.6317,5.36827Q20.0396,3.77613,17.976,2.9033100000000003Q15.8403,2,13.5,2Q11.1597,2,9.024,2.9033100000000003Q6.96042,3.77614,5.36828,5.36827Q3.77614,6.9604,2.90332,9.02398Q2,11.1597,2,13.5ZM0,13.5Q0,10.75409,1.061311,8.24488Q2.08609,5.82202,3.95407,3.95405Q5.82204,2.08609,8.24489,1.0613056Q10.7541,0,13.5,0Q16.2459,0,18.7551,1.0613047Q21.178,2.08608,23.0459,3.95405Q24.9139,5.82202,25.9387,8.24488Q27,10.75409,27,13.5Q27,16.2459,25.9387,18.7551Q24.9139,21.178,23.0459,23.0459Q21.178,24.9139,18.7551,25.9387Q16.2459,27,13.5,27Q10.7541,27,8.24489,25.9387Q5.82204,24.9139,3.95407,23.0459Q2.0861,21.178,1.0613115,18.7551Q0,16.2459,0,13.5ZM19.8045,18.8051Q19.8045,18.9036,19.7853,19.0002Q19.7661,19.0968,19.7284,19.1878Q19.6907,19.2788,19.636,19.3607Q19.5812,19.4426,19.5116,19.5122Q19.442,19.5819,19.3601,19.6366Q19.2782,19.6913,19.1872,19.729Q19.0962,19.7667,18.9996,19.7859Q18.903,19.8051,18.8045,19.8051Q18.706,19.8051,18.6094,19.7859Q18.5128,19.7667,18.4218,19.729Q18.3308,19.6913,18.2489,19.6366Q18.167,19.5819,18.0974,19.5122Q18.0277,19.4426,17.973,19.3607Q17.9183,19.2788,17.8806,19.1878Q17.8429,19.0968,17.8237,19.0002Q17.8045,18.9036,17.8045,18.8051Q17.8045,18.7066,17.8237,18.61Q17.8429,18.5134,17.8806,18.4225Q17.9183,18.3315,17.973,18.2496Q18.0277,18.1677,18.0974,18.098Q18.167,18.0284,18.2489,17.9737Q18.3308,17.9189,18.4218,17.8813Q18.5128,17.8436,18.6094,17.8244Q18.706,17.8051,18.8045,17.8051Q18.903,17.8051,18.9996,17.8244Q19.0962,17.8436,19.1872,17.8813Q19.2782,17.9189,19.3601,17.9737Q19.442,18.0284,19.5116,18.098Q19.5812,18.1677,19.636,18.2496Q19.6907,18.3315,19.7284,18.4225Q19.7661,18.5134,19.7853,18.61Q19.8045,18.7066,19.8045,18.8051ZM14.5056,6Q14.5056,6.09849,14.4864,6.19509Q14.4672,6.29169,14.4295,6.38268Q14.3918,6.47368,14.3371,6.55557Q14.2824,6.63746,14.2128,6.70711Q14.1431,6.77675,14.0612,6.83147Q13.9793,6.88619,13.8883,6.92388Q13.7973,6.96157,13.7007,6.98078Q13.6041,7,13.5056,7Q13.4072,7,13.3106,6.98078Q13.214,6.96157,13.123,6.92388Q13.032,6.88619,12.9501,6.83147Q12.8682,6.77675,12.7985,6.70711Q12.7289,6.63746,12.6742,6.55557Q12.6195,6.47368,12.5818,6.38268Q12.5441,6.29169,12.5249,6.19509Q12.5056,6.09849,12.5056,6Q12.5056,5.90151,12.5249,5.80491Q12.5441,5.70831,12.5818,5.61732Q12.6195,5.52632,12.6742,5.44443Q12.7289,5.36254,12.7985,5.29289Q12.8682,5.22325,12.9501,5.16853Q13.032,5.11381,13.123,5.07612Q13.214,5.03843,13.3106,5.01921Q13.4072,5,13.5056,5Q13.6041,5,13.7007,5.01921Q13.7973,5.03843,13.8883,5.07612Q13.9793,5.11381,14.0612,5.16853Q14.1431,5.22325,14.2128,5.29289Q14.2824,5.36254,14.3371,5.44443Q14.3918,5.52632,14.4295,5.61732Q14.4672,5.70831,14.4864,5.80491Q14.5056,5.90151,14.5056,6Z" fill-opacity="1"/></svg>